<svg width="292" height="104" viewBox="0 0 292 104" fill="none" xmlns="http://www.w3.org/2000/svg">
<path d="M124.478 50.893L116.443 37.2522L111.163 37.2781L111.23 50.9579L106.862 50.9793L106.698 17.5237L117.498 17.4708C120.026 17.4584 122.156 17.88 123.888 18.7355C125.653 19.5909 126.97 20.7524 127.842 22.2202C128.713 23.6879 129.153 25.3658 129.162 27.2538C129.174 29.5577 128.512 31.593 127.176 33.3596C125.873 35.126 123.895 36.3037 121.241 36.8927L129.71 50.8674L124.478 50.893ZM111.146 33.7741L117.578 33.7426C119.946 33.731 121.719 33.1463 122.897 31.9885C124.076 30.7987 124.66 29.2278 124.65 27.2759C124.641 25.2919 124.041 23.7588 122.852 22.6766C121.694 21.5943 119.916 21.059 117.516 21.0708L111.084 21.1023L111.146 33.7741Z" fill="url(#paint0_linear)"/>
<path d="M159.995 36.5588C159.999 37.3908 159.956 38.271 159.864 39.1995L138.841 39.3025C139.013 41.8937 139.903 43.9213 141.51 45.3855C143.149 46.8175 145.121 47.5278 147.425 47.5165C149.313 47.5073 150.879 47.0676 152.122 46.1975C153.398 45.2952 154.288 44.1069 154.793 42.6324L159.497 42.6093C158.805 45.1407 157.408 47.2116 155.303 48.8219C153.199 50.4003 150.579 51.1971 147.443 51.2125C144.947 51.2247 142.704 50.6757 140.715 49.5654C138.757 48.455 137.214 46.8786 136.084 44.8361C134.953 42.7616 134.382 40.3644 134.368 37.6444C134.355 34.9244 134.887 32.5378 135.965 30.4845C137.043 28.4312 138.556 26.8557 140.502 25.7582C142.481 24.6285 144.75 24.0574 147.31 24.0448C149.806 24.0326 152.016 24.5658 153.942 25.6443C155.867 26.7229 157.346 28.2197 158.38 30.1347C159.445 32.0175 159.984 34.1588 159.995 36.5588ZM155.479 35.6689C155.471 34.0049 155.096 32.5828 154.354 31.4024C153.612 30.19 152.6 29.283 151.317 28.6812C150.066 28.0474 148.672 27.7342 147.136 27.7417C144.928 27.7525 143.043 28.4658 141.482 29.8814C139.953 31.2969 139.083 33.2532 138.871 35.7503L155.479 35.6689Z" fill="url(#paint1_linear)"/>
<path d="M176.423 27.9342L170.903 27.9613L171.014 50.665L166.646 50.6864L166.535 27.9827L163.127 27.9994L163.109 24.3994L166.517 24.3827L166.508 22.5107C166.494 19.5668 167.235 17.4191 168.733 16.0678C170.262 14.6842 172.707 13.9843 176.066 13.9678L176.084 17.6158C174.164 17.6252 172.806 18.0158 172.01 18.7877C171.246 19.5275 170.868 20.7614 170.876 22.4893L170.885 24.3613L176.405 24.3343L176.423 27.9342Z" fill="url(#paint2_linear)"/>
<path d="M193.101 50.9888C190.637 51.0009 188.394 50.4518 186.373 49.3417C184.383 48.2315 182.808 46.6552 181.646 44.6128C180.515 42.5384 179.944 40.1411 179.93 37.4212C179.917 34.7332 180.482 32.3624 181.623 30.3088C182.797 28.223 184.39 26.6312 186.4 25.5333C188.411 24.4034 190.664 23.8324 193.16 23.8202C195.656 23.8079 197.915 24.3569 199.936 25.467C201.957 26.5451 203.549 28.1053 204.711 30.1477C205.905 32.1898 206.509 34.5709 206.522 37.2909C206.535 40.0108 205.939 42.4138 204.733 44.4997C203.559 46.5535 201.951 48.1454 199.909 49.2754C197.866 50.4054 195.597 50.9766 193.101 50.9888ZM193.082 47.1488C194.65 47.1412 196.12 46.7659 197.493 46.0232C198.865 45.2805 199.964 44.1711 200.788 42.695C201.645 41.2188 202.068 39.4247 202.058 37.3127C202.048 35.2008 201.623 33.4108 200.784 31.9429C199.945 30.475 198.851 29.3924 197.504 28.6949C196.156 27.9655 194.698 27.6047 193.13 27.6124C191.53 27.6202 190.06 27.9954 188.72 28.738C187.411 29.4484 186.361 30.5416 185.568 32.0175C184.775 33.4934 184.384 35.2873 184.394 37.3993C184.405 39.5433 184.798 41.3494 185.573 42.8176C186.38 44.2856 187.441 45.3845 188.757 46.114C190.072 46.8116 191.514 47.1565 193.082 47.1488Z" fill="url(#paint3_linear)"/>
<path d="M210.633 37.2707C210.62 34.5508 211.152 32.1801 212.23 30.1588C213.308 28.1055 214.804 26.5142 216.719 25.3848C218.665 24.2552 220.887 23.6843 223.383 23.6721C226.615 23.6563 229.274 24.4272 231.362 25.985C233.482 27.5427 234.884 29.7118 235.57 32.4925L230.866 32.5155C230.41 30.9178 229.524 29.6581 228.207 28.7365C226.923 27.8148 225.321 27.3586 223.401 27.3681C220.905 27.3803 218.893 28.2541 217.365 29.9897C215.838 31.6932 215.082 34.1129 215.097 37.2489C215.113 40.4168 215.893 42.861 217.437 44.5815C218.981 46.3019 221.002 47.156 223.498 47.1438C225.418 47.1344 227.015 46.6786 228.291 45.7763C229.567 44.8741 230.44 43.5898 230.912 41.9234L235.616 41.9004C234.925 44.5918 233.528 46.7587 231.424 48.401C229.32 50.0113 226.684 50.8242 223.516 50.8398C221.02 50.852 218.793 50.3029 216.836 49.1925C214.91 48.0819 213.398 46.5053 212.3 44.4626C211.202 42.42 210.647 40.0227 210.633 37.2707Z" fill="url(#paint4_linear)"/>
<path d="M264.684 23.9017L264.813 50.2054L260.445 50.2268L260.426 46.3389C259.601 47.6869 258.438 48.7486 256.938 49.524C255.47 50.2672 253.839 50.6432 252.047 50.652C249.999 50.662 248.157 50.255 246.521 49.431C244.885 48.575 243.583 47.3014 242.615 45.6101C241.678 43.9187 241.204 41.857 241.192 39.425L241.117 24.0172L245.437 23.996L245.509 38.8279C245.522 41.4198 246.188 43.4166 247.507 44.8182C248.825 46.1877 250.621 46.8669 252.893 46.8558C255.229 46.8443 257.065 46.1153 258.402 44.6688C259.739 43.2222 260.401 41.1229 260.387 38.371L260.317 23.9231L264.684 23.9017Z" fill="url(#paint5_linear)"/>
<path d="M281.502 50.5557C279.486 50.5655 277.677 50.2384 276.074 49.5743C274.47 48.8781 273.201 47.9243 272.267 46.7129C271.333 45.4694 270.814 44.048 270.711 42.4484L275.222 42.4263C275.357 43.7377 275.97 44.8067 277.062 45.6334C278.186 46.4599 279.644 46.8687 281.436 46.8599C283.1 46.8518 284.41 46.4774 285.367 45.7367C286.323 44.996 286.799 44.0656 286.793 42.9457C286.788 41.7937 286.271 40.9482 285.245 40.4092C284.218 39.8382 282.631 39.286 280.485 38.7525C278.53 38.2501 276.928 37.7459 275.677 37.24C274.458 36.702 273.399 35.9232 272.498 34.9036C271.628 33.8518 271.19 32.478 271.181 30.782C271.175 29.438 271.569 28.2041 272.363 27.0802C273.158 25.9563 274.289 25.0707 275.758 24.4235C277.227 23.7443 278.905 23.4001 280.793 23.3908C283.705 23.3765 286.061 24.101 287.86 25.5642C289.659 27.0274 290.629 29.0387 290.77 31.598L286.402 31.6194C286.299 30.2439 285.734 29.1427 284.705 28.3157C283.709 27.4886 282.363 27.0792 280.667 27.0875C279.099 27.0952 277.853 27.4373 276.928 28.1138C276.004 28.7903 275.544 29.6726 275.549 30.7606C275.554 31.6246 275.829 32.3432 276.376 32.9166C276.955 33.4577 277.661 33.9023 278.494 34.2502C279.36 34.566 280.546 34.9282 282.052 35.3368C283.942 35.8395 285.481 36.344 286.667 36.8502C287.854 37.3244 288.865 38.0554 289.702 39.0434C290.571 40.0311 291.025 41.3249 291.065 42.9247C291.072 44.3647 290.679 45.6626 289.884 46.8186C289.09 47.9745 287.958 48.892 286.49 49.5712C285.053 50.2183 283.39 50.5464 281.502 50.5557Z" fill="url(#paint6_linear)"/>
<path d="M105.325 70.2351C105.309 66.9711 106.03 64.0395 107.489 61.4404C108.949 58.8092 110.939 56.7514 113.459 55.267C116.012 53.7825 118.84 53.0326 121.944 53.0174C125.592 52.9996 128.781 53.864 131.509 55.6106C134.238 57.3573 136.234 59.8435 137.498 63.0694L132.266 63.095C131.328 61.0836 129.976 59.5382 128.211 58.4588C126.478 57.3793 124.395 56.8455 121.963 56.8574C119.627 56.8688 117.534 57.4231 115.683 58.5202C113.833 59.6173 112.384 61.1764 111.338 63.1975C110.292 65.1867 109.775 67.5252 109.789 70.2132C109.802 72.8692 110.341 75.2026 111.407 77.2134C112.473 79.1922 113.936 80.721 115.797 81.7999C117.659 82.8788 119.757 83.4125 122.093 83.4011C124.525 83.3892 126.603 82.851 128.325 81.7865C130.08 80.6899 131.416 79.1313 132.335 77.1108L137.567 77.0852C136.334 80.2913 134.362 82.781 131.651 84.5543C128.94 86.2956 125.76 87.1752 122.112 87.193C119.008 87.2082 116.172 86.5021 113.605 85.0747C111.07 83.6151 109.06 81.5929 107.576 79.0082C106.091 76.4234 105.341 73.499 105.325 70.2351Z" fill="url(#paint7_linear)"/>
<path d="M173.327 72.4939C173.331 73.3259 173.287 74.2061 173.195 75.1346L152.172 75.2376C152.344 77.8288 153.234 79.8565 154.842 81.3206C156.481 82.7526 158.452 83.4629 160.756 83.4517C162.644 83.4424 164.21 83.0027 165.454 82.1326C166.729 81.2304 167.619 80.042 168.124 78.5675L172.828 78.5444C172.137 81.0759 170.739 83.1467 168.635 84.7571C166.53 86.3354 163.91 87.1322 160.774 87.1476C158.278 87.1598 156.036 86.6108 154.046 85.5005C152.089 84.3901 150.545 82.8137 149.415 80.7712C148.285 78.6967 147.713 76.2995 147.7 73.5795C147.686 70.8595 148.219 68.4729 149.297 66.4196C150.374 64.3663 151.887 62.7909 153.833 61.6933C155.812 60.5636 158.081 59.9925 160.641 59.9799C163.137 59.9677 165.348 60.5009 167.273 61.5795C169.198 62.658 170.678 64.1548 171.711 66.0698C172.776 67.9526 173.315 70.094 173.327 72.4939ZM168.81 71.604C168.802 69.9401 168.427 68.5179 167.685 67.3375C166.943 66.1251 165.931 65.2181 164.648 64.6164C163.397 63.9825 162.003 63.6693 160.467 63.6768C158.259 63.6876 156.375 64.4009 154.814 65.8166C153.285 67.2321 152.414 69.1883 152.202 71.6854L168.81 71.604Z" fill="url(#paint8_linear)"/>
<path d="M197.126 59.7532C200.326 59.7375 202.923 60.7008 204.916 62.643C206.91 64.5533 207.915 67.3324 207.933 70.9804L208.009 86.4842L203.689 86.5053L203.616 71.6255C203.603 69.0015 202.938 67.0048 201.619 65.6352C200.3 64.2337 198.505 63.5385 196.233 63.5496C193.929 63.5609 192.092 64.2899 190.723 65.7366C189.386 67.1832 188.725 69.2824 188.738 72.0344L188.809 86.5782L184.441 86.5996L184.313 60.296L188.681 60.2746L188.699 64.0185C189.556 62.6703 190.719 61.6246 192.188 60.8814C193.688 60.138 195.334 59.762 197.126 59.7532Z" fill="url(#paint9_linear)"/>
<path d="M225.641 63.6935L225.717 79.1973C225.723 80.4773 226 81.388 226.546 81.9293C227.093 82.4386 228.038 82.69 229.382 82.6834L232.598 82.6677L232.616 86.3636L228.68 86.3829C226.248 86.3948 224.421 85.8438 223.2 84.7297C221.978 83.6157 221.361 81.7787 221.349 79.2187L221.273 63.7149L217.865 63.7316L217.847 60.1317L221.255 60.115L221.223 53.491L225.591 53.4696L225.623 60.0936L232.487 60.0599L232.505 63.6599L225.641 63.6935Z" fill="url(#paint10_linear)"/>
<path d="M267.119 72.0344C267.123 72.8664 267.079 73.7466 266.987 74.6751L245.964 74.7781C246.136 77.3693 247.026 79.3969 248.634 80.8611C250.273 82.2931 252.244 83.0034 254.548 82.9921C256.436 82.9829 258.002 82.5432 259.246 81.6731C260.521 80.7708 261.411 79.5824 261.916 78.108L266.62 78.0849C265.929 80.6163 264.531 82.6872 262.427 84.2975C260.322 85.8759 257.702 86.6727 254.566 86.6881C252.07 86.7003 249.828 86.1513 247.838 85.041C245.881 83.9306 244.337 82.3541 243.207 80.3117C242.077 78.2372 241.505 75.8399 241.492 73.12C241.478 70.4 242.011 68.0134 243.089 65.9601C244.166 63.9067 245.679 62.3313 247.625 61.2338C249.604 60.1041 251.873 59.5329 254.433 59.5204C256.929 59.5082 259.14 60.0413 261.065 61.1199C262.99 62.1985 264.47 63.6953 265.503 65.6102C266.568 67.493 267.107 69.6344 267.119 72.0344ZM262.602 71.1445C262.594 69.4805 262.219 68.0584 261.477 66.878C260.735 65.6656 259.723 64.7585 258.44 64.1568C257.189 63.5229 255.795 63.2098 254.259 63.2173C252.051 63.2281 250.167 63.9414 248.606 65.357C247.077 66.7725 246.206 68.7288 245.994 71.2259L262.602 71.1445Z" fill="url(#paint11_linear)"/>
<path d="M282.493 64.087C283.254 62.5792 284.336 61.4059 285.74 60.567C287.176 59.728 288.918 59.3034 290.966 59.2934L290.988 63.8053L289.836 63.811C284.94 63.835 282.505 66.5029 282.531 71.8149L282.601 86.1187L278.233 86.1401L278.105 59.8364L282.473 59.815L282.493 64.087Z" fill="url(#paint12_linear)"/>
<path d="M47.8275 72.0577L66.3207 68.7746C67.7673 68.5177 68.8275 67.1846 68.8275 65.6224L68.8275 35.8725C68.8275 34.2821 67.7297 32.9338 66.2517 32.7089L47.8275 29.9056V72.0577ZM61.3275 58.9868C62.1562 58.9868 62.8276 59.702 62.8276 60.5846C62.8276 61.4673 62.1562 62.1825 61.3275 62.1825H52.3275C51.4989 62.1825 50.8275 61.4673 50.8275 60.5846C50.8275 59.702 51.4989 58.9868 52.3275 58.9868H61.3275ZM61.3275 49.3998C62.1562 49.3998 62.8276 50.115 62.8276 50.9977C62.8276 51.8803 62.1562 52.5955 61.3275 52.5955H52.3275C51.4989 52.5955 50.8275 51.8803 50.8275 50.9977C50.8275 50.115 51.4989 49.3998 52.3275 49.3998H61.3275ZM61.3275 39.8128C62.1562 39.8128 62.8276 40.528 62.8276 41.4107C62.8276 42.2934 62.1562 43.0086 61.3275 43.0086H52.3275C51.4989 43.0086 50.8275 42.2934 50.8275 41.4107C50.8275 40.528 51.4989 39.8128 52.3275 39.8128H61.3275Z" fill="url(#paint13_linear)"/>
<path d="M38.8976 28.0955V32.76L25.8371 46.6724C25.2512 47.2965 25.2512 48.3077 25.8371 48.9318C26.4225 49.5559 27.3727 49.5559 27.9582 48.9318L38.8976 37.2789V64.7165L27.9582 53.0637C27.3727 52.4396 26.4225 52.4396 25.837 53.0637C25.2512 53.6878 25.2512 54.699 25.837 55.3232L38.8976 69.2353V73.8998C38.8976 74.7823 39.5692 75.4977 40.3977 75.4977L43.3976 75.4977C44.226 75.4977 44.8977 74.7823 44.8977 73.8998V28.0954C44.8977 27.2131 44.2261 26.4976 43.3976 26.4976H40.3976C39.5692 26.4977 38.8976 27.2131 38.8976 28.0955Z" fill="url(#paint14_linear)"/>
<path d="M0.366991 52.1988C0.319016 42.4069 2.48395 33.6122 6.8618 25.8146C11.2392 17.9211 17.209 11.7477 24.7713 7.29464C32.4296 2.84107 40.9146 0.591467 50.2265 0.545843C61.1704 0.492224 70.7352 3.08539 78.921 8.32535C87.1068 13.5653 93.0954 21.0241 96.8868 30.7016L81.191 30.7785C78.3774 24.7442 74.3227 20.108 69.0267 16.8699C63.8268 13.6314 57.5789 12.03 50.283 12.0657C43.275 12.1 36.9951 13.7628 31.4432 17.0541C25.8912 20.3453 21.5461 25.0227 18.4078 31.0861C15.269 37.0536 13.7193 44.0692 13.7588 52.1331C13.7979 60.101 15.4162 67.1012 18.6138 73.1336C21.8109 79.07 26.2014 83.6566 31.7854 86.8932C37.3693 90.1299 43.6652 91.7311 50.6731 91.6968C57.969 91.661 64.2012 90.0465 69.3696 86.8531C74.6336 83.5633 78.6427 78.8876 81.397 72.826L97.0928 72.7491C93.3959 82.3673 87.4804 89.8364 79.3464 95.1563C71.2119 100.38 61.6727 103.019 50.7289 103.073C41.417 103.118 32.9105 101 25.2094 96.7176C17.6039 92.3388 11.5741 86.2723 7.12002 78.518C2.66598 70.7637 0.414966 61.9906 0.366991 52.1988Z" fill="url(#paint15_linear)"/>
<defs>
<linearGradient id="paint0_linear" x1="-44.0356" y1="-23.958" x2="104.847" y2="-29.1217" gradientUnits="userSpaceOnUse">
<stop stop-color="#DA5AFA"/>
<stop offset="1" stop-color="#3570EC"/>
</linearGradient>
<linearGradient id="paint1_linear" x1="-44.0356" y1="-23.958" x2="104.847" y2="-29.1217" gradientUnits="userSpaceOnUse">
<stop stop-color="#DA5AFA"/>
<stop offset="1" stop-color="#3570EC"/>
</linearGradient>
<linearGradient id="paint2_linear" x1="-44.0356" y1="-23.958" x2="104.847" y2="-29.1217" gradientUnits="userSpaceOnUse">
<stop stop-color="#DA5AFA"/>
<stop offset="1" stop-color="#3570EC"/>
</linearGradient>
<linearGradient id="paint3_linear" x1="-44.0356" y1="-23.958" x2="104.847" y2="-29.1217" gradientUnits="userSpaceOnUse">
<stop stop-color="#DA5AFA"/>
<stop offset="1" stop-color="#3570EC"/>
</linearGradient>
<linearGradient id="paint4_linear" x1="-44.0356" y1="-23.958" x2="104.847" y2="-29.1217" gradientUnits="userSpaceOnUse">
<stop stop-color="#DA5AFA"/>
<stop offset="1" stop-color="#3570EC"/>
</linearGradient>
<linearGradient id="paint5_linear" x1="-44.0356" y1="-23.958" x2="104.847" y2="-29.1217" gradientUnits="userSpaceOnUse">
<stop stop-color="#DA5AFA"/>
<stop offset="1" stop-color="#3570EC"/>
</linearGradient>
<linearGradient id="paint6_linear" x1="-44.0356" y1="-23.958" x2="104.847" y2="-29.1217" gradientUnits="userSpaceOnUse">
<stop stop-color="#DA5AFA"/>
<stop offset="1" stop-color="#3570EC"/>
</linearGradient>
<linearGradient id="paint7_linear" x1="-44.0356" y1="-23.958" x2="104.847" y2="-29.1217" gradientUnits="userSpaceOnUse">
<stop stop-color="#DA5AFA"/>
<stop offset="1" stop-color="#3570EC"/>
</linearGradient>
<linearGradient id="paint8_linear" x1="-44.0356" y1="-23.958" x2="104.847" y2="-29.1217" gradientUnits="userSpaceOnUse">
<stop stop-color="#DA5AFA"/>
<stop offset="1" stop-color="#3570EC"/>
</linearGradient>
<linearGradient id="paint9_linear" x1="-44.0356" y1="-23.958" x2="104.847" y2="-29.1217" gradientUnits="userSpaceOnUse">
<stop stop-color="#DA5AFA"/>
<stop offset="1" stop-color="#3570EC"/>
</linearGradient>
<linearGradient id="paint10_linear" x1="-44.0356" y1="-23.958" x2="104.847" y2="-29.1217" gradientUnits="userSpaceOnUse">
<stop stop-color="#DA5AFA"/>
<stop offset="1" stop-color="#3570EC"/>
</linearGradient>
<linearGradient id="paint11_linear" x1="-44.0356" y1="-23.958" x2="104.847" y2="-29.1217" gradientUnits="userSpaceOnUse">
<stop stop-color="#DA5AFA"/>
<stop offset="1" stop-color="#3570EC"/>
</linearGradient>
<linearGradient id="paint12_linear" x1="-44.0356" y1="-23.958" x2="104.847" y2="-29.1217" gradientUnits="userSpaceOnUse">
<stop stop-color="#DA5AFA"/>
<stop offset="1" stop-color="#3570EC"/>
</linearGradient>
<linearGradient id="paint13_linear" x1="-44.0356" y1="-23.958" x2="104.847" y2="-29.1217" gradientUnits="userSpaceOnUse">
<stop stop-color="#DA5AFA"/>
<stop offset="1" stop-color="#3570EC"/>
</linearGradient>
<linearGradient id="paint14_linear" x1="-44.0356" y1="-23.958" x2="104.847" y2="-29.1217" gradientUnits="userSpaceOnUse">
<stop stop-color="#DA5AFA"/>
<stop offset="1" stop-color="#3570EC"/>
</linearGradient>
<linearGradient id="paint15_linear" x1="-44.0356" y1="-23.958" x2="104.847" y2="-29.1217" gradientUnits="userSpaceOnUse">
<stop stop-color="#DA5AFA"/>
<stop offset="1" stop-color="#3570EC"/>
</linearGradient>
</defs>
</svg>
