<svg width="326" height="249" viewBox="0 0 326 249" fill="none" xmlns="http://www.w3.org/2000/svg">
<g clip-path="url(#clip0)">
<path d="M14.4576 241.897C24.619 249.122 37.7874 249.485 50.5161 248.598C52.2935 248.474 54.0583 248.329 55.8067 248.172C55.8173 248.169 55.8312 248.17 55.8419 248.167C55.9259 248.16 56.0101 248.152 56.0905 248.147C56.4514 248.114 56.8125 248.08 57.17 248.047L57.0855 248.206L56.8205 248.699C56.9157 248.534 57.0109 248.372 57.1062 248.207C57.1342 248.158 57.1656 248.108 57.1934 248.059C60.4909 242.395 63.7613 236.524 64.5956 230.056C65.4578 223.344 63.0345 215.743 57.0488 212.444C56.2638 212.012 55.4325 211.669 54.5703 211.419C54.2123 211.312 53.8495 211.225 53.4825 211.148C51.2377 210.656 48.9005 210.763 46.7115 211.458C44.5224 212.153 42.5604 213.411 41.0272 215.102C39.494 216.794 38.445 218.858 37.9879 221.082C37.5309 223.307 37.6824 225.611 38.4268 227.759C33.352 222.622 34.2987 214.291 36.0492 207.327C37.8032 200.364 39.9264 192.615 36.3591 186.361C34.3761 182.88 30.8888 180.72 26.9753 179.85C26.8552 179.824 26.7353 179.799 26.615 179.777C21.9521 178.844 17.1046 179.683 13.0406 182.124C5.55752 186.778 1.71413 195.603 0.466726 204.247C-1.54307 218.158 2.90464 233.682 14.4576 241.897Z" fill="url(#paint0_linear)" fill-opacity="0.6"/>
<path d="M17.7382 219.599C18.0332 222.667 18.78 225.676 19.9549 228.532C21.0378 231.059 22.4973 233.412 24.2852 235.513C27.9373 239.849 32.7664 243.109 38.011 245.281C42.0211 246.902 46.2227 248.017 50.516 248.598C52.2934 248.474 54.0582 248.329 55.8066 248.172C55.8172 248.169 55.8311 248.17 55.8418 248.167C55.9258 248.16 56.01 248.152 56.0904 248.147C56.4513 248.114 56.8124 248.08 57.1699 248.047L57.0854 248.206L56.8204 248.699C56.9156 248.534 57.0108 248.372 57.106 248.207C57.1341 248.158 57.1655 248.108 57.1933 248.059C53.9747 244.894 51.5716 241.013 50.1853 236.743C48.7991 232.472 48.4702 227.936 49.226 223.514C50.017 219.123 51.8482 214.979 54.5702 211.419C54.2122 211.312 53.8494 211.225 53.4824 211.148C52.4479 212.544 51.5405 214.027 50.7708 215.581C48.0087 221.121 47.1276 227.393 48.2577 233.466C49.3083 238.962 51.9258 244.048 55.8029 248.127C55.4634 248.103 55.1206 248.076 54.7852 248.046C48.4314 247.515 42.0905 246.166 36.3276 243.405C31.4015 241.102 27.1249 237.638 23.8743 233.32C20.3841 228.569 18.8461 222.854 18.5819 217.046C18.3018 210.828 19.1192 204.5 20.557 198.453C22.0251 192.254 24.2563 186.255 27.2009 180.59C27.2667 180.462 27.28 180.313 27.238 180.176C27.196 180.038 27.1019 179.921 26.9752 179.85C26.8695 179.779 26.7401 179.753 26.6149 179.777C26.5537 179.793 26.4969 179.822 26.4488 179.863C26.4007 179.903 26.3625 179.954 26.337 180.011C25.9738 180.711 25.6173 181.411 25.2744 182.119C22.4183 188.017 20.3155 194.242 19.0145 200.651C17.7514 206.834 17.0773 213.302 17.7382 219.599Z" fill="white"/>
<rect x="144.758" width="181.242" height="214.093" rx="7" fill="white"/>
<path d="M319.462 214.079H151.404C149.67 214.077 148.009 213.397 146.783 212.187C145.557 210.977 144.868 209.337 144.866 207.627V6.45274C144.868 4.74196 145.557 3.1018 146.783 1.89209C148.009 0.682384 149.67 0.0019259 151.404 0H319.462C321.195 0.0019259 322.857 0.682384 324.083 1.89209C325.309 3.1018 325.998 4.74196 326 6.45274V207.627C325.998 209.337 325.309 210.977 324.083 212.187C322.857 213.397 321.195 214.077 319.462 214.079ZM151.404 0.759146C149.874 0.760854 148.408 1.36126 147.326 2.42865C146.245 3.49603 145.637 4.94323 145.635 6.45274V207.627C145.637 209.136 146.245 210.583 147.326 211.651C148.408 212.718 149.874 213.318 151.404 213.32H319.462C320.992 213.318 322.458 212.718 323.539 211.651C324.621 210.583 325.229 209.136 325.231 207.627V6.45274C325.229 4.94323 324.621 3.49603 323.539 2.42865C322.458 1.36126 320.992 0.760854 319.462 0.759146H151.404Z" fill="#555187"/>
<path d="M325.615 15.7866H145.251V16.5457H325.615V15.7866Z" fill="#555187"/>
<path d="M154.096 11.3872C155.795 11.3872 157.172 10.0277 157.172 8.35064C157.172 6.67358 155.795 5.31406 154.096 5.31406C152.397 5.31406 151.019 6.67358 151.019 8.35064C151.019 10.0277 152.397 11.3872 154.096 11.3872Z" fill="#555187"/>
<path d="M163.71 11.3872C165.409 11.3872 166.787 10.0277 166.787 8.35064C166.787 6.67358 165.409 5.31406 163.71 5.31406C162.011 5.31406 160.634 6.67358 160.634 8.35064C160.634 10.0277 162.011 11.3872 163.71 11.3872Z" fill="#555187"/>
<path d="M173.324 11.3872C175.024 11.3872 176.401 10.0277 176.401 8.35064C176.401 6.67358 175.024 5.31406 173.324 5.31406C171.625 5.31406 170.248 6.67358 170.248 8.35064C170.248 10.0277 171.625 11.3872 173.324 11.3872Z" fill="#555187"/>
<path d="M293.411 45.9284H173.424C172.098 45.9284 170.827 45.4085 169.889 44.4831C168.952 43.5577 168.425 42.3026 168.425 40.9939C168.425 39.6852 168.952 38.4301 169.889 37.5047C170.827 36.5793 172.098 36.0595 173.424 36.0595H293.411C294.737 36.0595 296.009 36.5793 296.946 37.5047C297.884 38.4301 298.411 39.6852 298.411 40.9939C298.411 42.3026 297.884 43.5577 296.946 44.4831C296.009 45.4085 294.737 45.9284 293.411 45.9284ZM173.424 36.8186C172.302 36.8186 171.226 37.2585 170.433 38.0415C169.64 38.8246 169.194 39.8866 169.194 40.9939C169.194 42.1013 169.64 43.1633 170.433 43.9463C171.226 44.7293 172.302 45.1692 173.424 45.1692H293.411C294.533 45.1692 295.609 44.7293 296.403 43.9463C297.196 43.1633 297.642 42.1013 297.642 40.9939C297.642 39.8866 297.196 38.8246 296.403 38.0415C295.609 37.2585 294.533 36.8186 293.411 36.8186H173.424Z" fill="#555187"/>
<path d="M218.32 115.39H171.017C169.284 115.388 167.622 114.708 166.396 113.498C165.171 112.288 164.481 110.648 164.479 108.938V70.6006C164.481 68.8898 165.171 67.2497 166.396 66.04C167.622 64.8302 169.284 64.1498 171.017 64.1479H218.32C220.053 64.1498 221.715 64.8302 222.94 66.04C224.166 67.2497 224.855 68.8898 224.857 70.6006V108.938C224.855 110.648 224.166 112.288 222.94 113.498C221.715 114.708 220.053 115.388 218.32 115.39ZM171.017 64.907C169.488 64.9087 168.021 65.5091 166.94 66.5765C165.858 67.6439 165.25 69.0911 165.248 70.6006V108.938C165.25 110.447 165.858 111.894 166.94 112.962C168.021 114.029 169.488 114.629 171.017 114.631H218.32C219.849 114.629 221.315 114.029 222.397 112.962C223.478 111.894 224.086 110.447 224.088 108.938V70.6006C224.086 69.0911 223.478 67.6439 222.397 66.5765C221.315 65.5091 219.849 64.9087 218.32 64.907H171.017Z" fill="#555187"/>
<path d="M299.849 66.0458H252.546C249.148 66.0458 246.393 68.7648 246.393 72.1189V110.456C246.393 113.81 249.148 116.529 252.546 116.529H299.849C303.247 116.529 306.002 113.81 306.002 110.456V72.1189C306.002 68.7648 303.247 66.0458 299.849 66.0458Z" fill="#F2F2F2"/>
<path d="M218.32 186.75H171.017C169.284 186.748 167.622 186.068 166.396 184.858C165.171 183.648 164.481 182.008 164.479 180.297V141.96C164.481 140.25 165.171 138.609 166.396 137.4C167.622 136.19 169.284 135.51 171.017 135.508H218.32C220.053 135.51 221.715 136.19 222.94 137.4C224.166 138.609 224.855 140.25 224.857 141.96V180.297C224.855 182.008 224.166 183.648 222.94 184.858C221.715 186.068 220.053 186.748 218.32 186.75ZM171.017 136.267C169.488 136.268 168.021 136.869 166.94 137.936C165.858 139.004 165.25 140.451 165.248 141.96V180.297C165.25 181.807 165.858 183.254 166.94 184.321C168.021 185.389 169.488 185.989 171.017 185.991H218.32C219.849 185.989 221.315 185.389 222.397 184.321C223.478 183.254 224.086 181.807 224.088 180.297V141.96C224.086 140.451 223.478 139.004 222.397 137.936C221.315 136.869 219.849 136.268 218.32 136.267H171.017Z" fill="#555187"/>
<path d="M299.849 137.405H252.546C249.148 137.405 246.393 140.125 246.393 143.479V181.816C246.393 185.17 249.148 187.889 252.546 187.889H299.849C303.247 187.889 306.002 185.17 306.002 181.816V143.479C306.002 140.125 303.247 137.405 299.849 137.405Z" fill="#F2F2F2"/>
<path d="M182.897 106.118C182.889 106.118 182.88 106.118 182.871 106.118L177.491 105.921C177.323 105.916 177.163 105.851 177.04 105.739C176.917 105.626 176.839 105.474 176.821 105.309C176.451 102.048 174.927 85.4303 181.311 78.5235C182.215 77.5262 183.332 76.74 184.581 76.2218C185.831 75.7037 187.182 75.4666 188.536 75.5279C188.591 75.5313 188.646 75.5198 188.695 75.4947C188.744 75.4695 188.785 75.4316 188.814 75.3852L190.116 73.365C190.187 73.2555 190.288 73.168 190.407 73.1122C190.526 73.0565 190.659 73.0347 190.79 73.0495C191.834 73.1741 197.157 73.762 199.395 73.1224C199.527 73.0839 199.668 73.0848 199.8 73.1247C199.931 73.1647 200.048 73.242 200.135 73.347L201.845 75.4102C201.875 75.4475 201.913 75.4774 201.956 75.4972C202 75.5171 202.047 75.5264 202.095 75.5243C202.965 75.5071 206.015 75.6734 208.685 78.6204C211.575 81.8116 214.559 89.0116 212.355 105.189C212.332 105.355 212.249 105.508 212.121 105.618C211.993 105.729 211.829 105.79 211.659 105.79H207.422C207.254 105.79 207.091 105.73 206.964 105.621C206.837 105.512 206.753 105.362 206.728 105.198L205.344 95.7711C205.333 95.6936 205.292 95.6231 205.231 95.5737C205.169 95.5243 205.091 95.4996 205.012 95.5044C204.933 95.5092 204.858 95.5432 204.803 95.5997C204.748 95.6562 204.717 95.731 204.715 95.8092L204.62 100.235C204.617 100.367 204.576 100.494 204.502 100.604C204.429 100.713 204.325 100.799 204.203 100.853C202.693 101.508 194.711 104.583 185.889 100.732C185.77 100.679 185.668 100.595 185.594 100.488C185.521 100.381 185.478 100.256 185.473 100.127L185.299 96.1058C185.296 96.0273 185.263 95.9529 185.206 95.8976C185.149 95.8422 185.074 95.8099 184.994 95.8072C184.915 95.8045 184.837 95.8315 184.777 95.8828C184.716 95.9341 184.678 96.006 184.669 96.0841L183.594 105.504C183.574 105.673 183.492 105.828 183.363 105.942C183.235 106.055 183.069 106.118 182.897 106.118Z" fill="#6C63FF"/>
<path d="M182.897 106.118C182.889 106.118 182.88 106.118 182.871 106.118L177.491 105.921C177.323 105.916 177.163 105.851 177.04 105.739C176.917 105.626 176.839 105.474 176.821 105.309C176.451 102.048 174.927 85.4303 181.311 78.5235C182.215 77.5262 183.332 76.74 184.581 76.2218C185.831 75.7037 187.182 75.4666 188.536 75.5279C188.591 75.5313 188.646 75.5198 188.695 75.4947C188.744 75.4695 188.785 75.4316 188.814 75.3852L190.116 73.365C190.187 73.2555 190.288 73.168 190.407 73.1122C190.526 73.0565 190.659 73.0347 190.79 73.0495C191.834 73.1741 197.157 73.762 199.395 73.1224C199.527 73.0839 199.668 73.0848 199.8 73.1247C199.931 73.1647 200.048 73.242 200.135 73.347L201.845 75.4102C201.875 75.4475 201.913 75.4774 201.956 75.4972C202 75.5171 202.047 75.5264 202.095 75.5243C202.965 75.5071 206.015 75.6734 208.685 78.6204C211.575 81.8116 214.559 89.0116 212.355 105.189C212.332 105.355 212.249 105.508 212.121 105.618C211.993 105.729 211.829 105.79 211.659 105.79H207.422C207.254 105.79 207.091 105.73 206.964 105.621C206.837 105.512 206.753 105.362 206.728 105.198L205.344 95.7711C205.333 95.6936 205.292 95.6231 205.231 95.5737C205.169 95.5243 205.091 95.4996 205.012 95.5044C204.933 95.5092 204.858 95.5432 204.803 95.5997C204.748 95.6562 204.717 95.731 204.715 95.8092L204.62 100.235C204.617 100.367 204.576 100.494 204.502 100.604C204.429 100.713 204.325 100.799 204.203 100.853C202.693 101.508 194.711 104.583 185.889 100.732C185.77 100.679 185.668 100.595 185.594 100.488C185.521 100.381 185.478 100.256 185.473 100.127L185.299 96.1058C185.296 96.0273 185.263 95.9529 185.206 95.8976C185.149 95.8422 185.074 95.8099 184.994 95.8072C184.915 95.8045 184.837 95.8315 184.777 95.8828C184.716 95.9341 184.678 96.006 184.669 96.0841L183.594 105.504C183.574 105.673 183.492 105.828 183.363 105.942C183.235 106.055 183.069 106.118 182.897 106.118Z" fill="url(#paint1_linear)" fill-opacity="0.6"/>
<path d="M205.154 175.567H205.15L184.067 175.436C183.914 175.434 183.766 175.378 183.652 175.277C183.538 175.176 183.465 175.038 183.447 174.888L181.326 157.096C181.313 156.981 181.259 156.875 181.172 156.796C181.086 156.718 180.975 156.673 180.858 156.67C179.184 156.616 175.202 156.239 174.377 153.913C173.642 151.841 175.652 148.785 180.351 144.829C180.431 144.762 180.527 144.715 180.63 144.694C180.733 144.672 180.839 144.676 180.94 144.706C181.041 144.736 181.133 144.79 181.207 144.863C181.281 144.937 181.335 145.028 181.365 145.128L183.804 153.435C183.834 153.534 183.895 153.622 183.979 153.685C184.063 153.747 184.165 153.782 184.271 153.783L204.26 153.915C204.365 153.916 204.467 153.884 204.552 153.823C204.637 153.762 204.699 153.676 204.73 153.577L207.445 145.053C207.475 144.958 207.528 144.871 207.599 144.8C207.67 144.73 207.758 144.677 207.854 144.647C207.95 144.617 208.053 144.61 208.152 144.627C208.252 144.644 208.345 144.685 208.426 144.745C210.278 146.142 216.245 150.935 215.263 154.001C214.748 155.606 212.428 156.501 208.367 156.661C208.251 156.665 208.139 156.71 208.054 156.788C207.968 156.867 207.914 156.972 207.9 157.087L205.779 175.019C205.761 175.17 205.687 175.309 205.572 175.41C205.457 175.512 205.308 175.567 205.154 175.567Z" fill="#6C63FF"/>
<path d="M205.154 175.567H205.15L184.067 175.436C183.914 175.434 183.766 175.378 183.652 175.277C183.538 175.176 183.465 175.038 183.447 174.888L181.326 157.096C181.313 156.981 181.259 156.875 181.172 156.796C181.086 156.718 180.975 156.673 180.858 156.67C179.184 156.616 175.202 156.239 174.377 153.913C173.642 151.841 175.652 148.785 180.351 144.829C180.431 144.762 180.527 144.715 180.63 144.694C180.733 144.672 180.839 144.676 180.94 144.706C181.041 144.736 181.133 144.79 181.207 144.863C181.281 144.937 181.335 145.028 181.365 145.128L183.804 153.435C183.834 153.534 183.895 153.622 183.979 153.685C184.063 153.747 184.165 153.782 184.271 153.783L204.26 153.915C204.365 153.916 204.467 153.884 204.552 153.823C204.637 153.762 204.699 153.676 204.73 153.577L207.445 145.053C207.475 144.958 207.528 144.871 207.599 144.8C207.67 144.73 207.758 144.677 207.854 144.647C207.95 144.617 208.053 144.61 208.152 144.627C208.252 144.644 208.345 144.685 208.426 144.745C210.278 146.142 216.245 150.935 215.263 154.001C214.748 155.606 212.428 156.501 208.367 156.661C208.251 156.665 208.139 156.71 208.054 156.788C207.968 156.867 207.914 156.972 207.9 157.087L205.779 175.019C205.761 175.17 205.687 175.309 205.572 175.41C205.457 175.512 205.308 175.567 205.154 175.567Z" fill="url(#paint2_linear)" fill-opacity="0.6"/>
<path d="M297.542 100.645C290.917 101.904 284.669 104.635 279.272 108.631C278.999 107.914 278.485 107.311 277.816 106.923C277.359 106.644 276.86 106.437 276.337 106.31C275.862 106.191 275.406 106.476 274.986 106.887C274.504 107.413 274.099 108.005 273.784 108.643C266.544 103.738 255.562 100.608 255.562 100.608V99.6273C255.571 99.3961 255.594 99.1657 255.633 98.9376C255.67 98.6739 255.717 98.4409 255.776 98.1559C256.708 93.4778 260.391 82.7881 260.391 82.7881H264.556L272.632 84.4436L281.717 83.8948L290.867 82.0156L292.053 81.7704C294.032 83.3032 296.278 94.0327 297.16 98.6004C297.271 99.1798 297.358 99.658 297.424 100.011C297.501 100.409 297.542 100.645 297.542 100.645Z" fill="white"/>
<path d="M272.689 147.737C272.689 147.737 270.754 148.214 267.754 156.235C264.754 164.256 263.691 174.619 263.691 174.619C263.691 174.619 262.004 177.439 269.205 177.628C269.205 177.628 268.626 179.49 272.689 179.204C276.752 178.918 276.167 178.921 276.167 178.921C276.167 178.921 278.78 177.298 279.941 177.583C281.102 177.869 281.828 177.966 283.085 179.016C284.342 180.065 288.36 179.637 288.408 178.827C288.44 178.429 288.44 178.029 288.408 177.631C288.408 177.631 294.552 178.014 293.391 173.62C292.229 169.227 291.262 162.016 291.262 162.016C291.262 162.016 288.118 147.931 284.536 147.74C280.953 147.548 272.689 147.737 272.689 147.737Z" fill="white"/>
<path d="M74.0842 134.216C80.4561 134.216 85.6215 129.117 85.6215 122.828C85.6215 116.539 80.4561 111.441 74.0842 111.441C67.7124 111.441 62.547 116.539 62.547 122.828C62.547 129.117 67.7124 134.216 74.0842 134.216Z" fill="#2F2E41"/>
<path d="M74.0842 134.216C80.4561 134.216 85.6215 129.117 85.6215 122.828C85.6215 116.539 80.4561 111.441 74.0842 111.441C67.7124 111.441 62.547 116.539 62.547 122.828C62.547 129.117 67.7124 134.216 74.0842 134.216Z" fill="url(#paint3_linear)" fill-opacity="0.6"/>
<path d="M75.0534 134.237C80.27 134.237 84.4989 130.063 84.4989 124.915C84.4989 119.766 80.27 115.592 75.0534 115.592C69.8368 115.592 65.6079 119.766 65.6079 124.915C65.6079 130.063 69.8368 134.237 75.0534 134.237Z" fill="#FFB8B8"/>
<path d="M111.026 153.271C110.876 153.42 110.738 153.58 110.613 153.75L91.5531 153.086L89.373 149.05L82.7729 151.502L85.9288 159.016C86.1838 159.623 86.6314 160.132 87.2044 160.466C87.7774 160.801 88.4449 160.943 89.1067 160.871L110.675 158.534C111.176 159.174 111.863 159.649 112.644 159.894C113.425 160.14 114.264 160.145 115.048 159.909C115.832 159.673 116.525 159.207 117.034 158.573C117.543 157.939 117.845 157.167 117.898 156.359C117.952 155.552 117.756 154.748 117.335 154.053C116.914 153.359 116.289 152.807 115.543 152.472C114.797 152.137 113.965 152.033 113.158 152.176C112.351 152.319 111.607 152.701 111.026 153.271H111.026Z" fill="#FFB8B8"/>
<path d="M80.234 155.13C79.9911 155.022 79.7746 154.864 79.5992 154.667C79.4238 154.469 79.2937 154.236 79.2178 153.985L76.5629 145.19C75.9865 143.972 75.9228 142.579 76.3859 141.314C76.849 140.05 77.8011 139.019 79.0335 138.447C80.2658 137.874 81.6778 137.808 82.9599 138.261C84.242 138.715 85.2895 139.652 85.8728 140.866L91.0154 148.547C91.1622 148.766 91.2593 149.014 91.3003 149.274C91.3412 149.533 91.325 149.798 91.2527 150.051C91.1804 150.304 91.0538 150.539 90.8814 150.739C90.709 150.939 90.4949 151.1 90.2537 151.211L81.7767 155.119C81.5355 155.23 81.2728 155.289 81.0066 155.291C80.7404 155.292 80.4769 155.238 80.234 155.13Z" fill="#CCCCCC"/>
<path d="M99.007 244.417L103.148 242.192L96.4238 225.369L90.3121 228.653L99.007 244.417Z" fill="#FFB8B8"/>
<path d="M97.2147 243.65L105.37 239.269L105.37 239.269C106.053 238.902 106.802 238.671 107.574 238.591C108.347 238.51 109.128 238.58 109.874 238.797C110.619 239.014 111.314 239.373 111.918 239.856C112.522 240.338 113.025 240.932 113.396 241.606L113.488 241.773L100.136 248.947L97.2147 243.65Z" fill="#2F2E41"/>
<path d="M53.4399 244.436H58.1544L60.3976 226.486L53.4387 226.487L53.4399 244.436Z" fill="#FFB8B8"/>
<path d="M52.2372 242.917L61.5223 242.916H61.5227C62.2997 242.916 63.0692 243.067 63.7871 243.361C64.505 243.654 65.1573 244.084 65.7068 244.627C66.2563 245.169 66.6921 245.813 66.9895 246.521C67.2869 247.23 67.4399 247.989 67.4399 248.756V248.946L52.2375 248.947L52.2372 242.917Z" fill="#2F2E41"/>
<path d="M82.7373 164.771L84.2756 182.991L101.435 233.799C101.502 233.999 101.527 234.21 101.507 234.42C101.487 234.63 101.423 234.833 101.32 235.017C101.216 235.201 101.074 235.362 100.904 235.489C100.734 235.616 100.539 235.707 100.332 235.756L95.0726 236.992C94.7358 237.071 94.3819 237.036 94.0679 236.892C93.754 236.748 93.4985 236.503 93.3427 236.198L71.4051 193.248C71.3336 193.108 71.2199 192.994 71.0797 192.92C70.9395 192.846 70.7796 192.817 70.622 192.837C70.4644 192.857 70.3169 192.924 70.1996 193.03C70.0823 193.135 70.0011 193.274 69.967 193.427L60.3128 236.836C60.2376 237.174 60.0476 237.477 59.7743 237.694C59.5011 237.911 59.1609 238.029 58.8102 238.029H53.9178C53.714 238.029 53.5122 237.989 53.3242 237.912C53.1362 237.834 52.9656 237.721 52.8226 237.577C52.6795 237.434 52.5668 237.264 52.4909 237.077C52.4151 236.891 52.3776 236.691 52.3808 236.49C52.8291 206.391 51.3501 172.094 63.1241 166.669L65.0469 161.735L82.7373 164.771Z" fill="#2F2E41"/>
<path d="M64.4931 163.027L62.5104 151.193C62.1822 149.252 62.3543 147.261 63.0108 145.403C63.6674 143.545 64.7872 141.88 66.2671 140.562C67.7137 139.257 69.47 138.332 71.3741 137.872C73.2783 137.413 75.2689 137.434 77.1626 137.934C77.275 137.963 77.3874 137.994 77.5001 138.025C79.8301 138.684 81.8992 140.032 83.4279 141.888C84.9566 143.745 85.8712 146.019 86.0482 148.405C86.4266 153.544 86.088 161.001 82.3263 167.334L82.2532 167.457L64.4931 163.027Z" fill="#CCCCCC"/>
<path d="M84.4498 119.96C82.2913 121.428 79.7294 122.209 77.108 122.199C78.0431 122.839 79.1076 123.271 80.2283 123.466C76.7429 124.204 73.1407 124.224 69.6471 123.525C68.8706 123.402 68.1213 123.148 67.4321 122.774C67.0886 122.585 66.7894 122.326 66.5539 122.015C66.3183 121.704 66.1517 121.348 66.0648 120.969C65.8327 119.66 66.8661 118.471 67.94 117.669C69.5843 116.461 71.4801 115.629 73.4904 115.232C75.5006 114.836 77.575 114.885 79.5635 115.377C80.862 115.708 82.1627 116.268 83.0061 117.297C83.8494 118.326 84.0992 119.913 83.2957 120.973L84.4498 119.96Z" fill="#2F2E41"/>
<path d="M84.4498 119.96C82.2913 121.428 79.7294 122.209 77.108 122.199C78.0431 122.839 79.1076 123.271 80.2283 123.466C76.7429 124.204 73.1407 124.224 69.6471 123.525C68.8706 123.402 68.1213 123.148 67.4321 122.774C67.0886 122.585 66.7894 122.326 66.5539 122.015C66.3183 121.704 66.1517 121.348 66.0648 120.969C65.8327 119.66 66.8661 118.471 67.94 117.669C69.5843 116.461 71.4801 115.629 73.4904 115.232C75.5006 114.836 77.575 114.885 79.5635 115.377C80.862 115.708 82.1627 116.268 83.0061 117.297C83.8494 118.326 84.0992 119.913 83.2957 120.973L84.4498 119.96Z" fill="url(#paint4_linear)" fill-opacity="0.6"/>
<path d="M73.9325 111.385C75.0275 107.021 71.1031 102.173 66.5495 102.264C61.9295 102.356 58.5297 106.477 56.1926 110.412C53.8556 114.346 51.5329 118.806 47.2425 120.5C45.8227 121.061 44.2842 121.265 42.7649 121.094C41.2455 120.923 39.7929 120.383 38.5371 119.522C37.2814 118.661 36.2618 117.505 35.5699 116.159C34.8779 114.814 34.5351 113.319 34.5723 111.81C33.9963 116.59 34.7944 121.762 37.9177 125.46C41.041 129.157 46.8526 130.823 51.0298 128.338C53.4155 126.919 54.9404 124.453 56.1976 121.999C57.4548 119.546 58.5735 116.959 60.4784 114.953C62.3833 112.947 65.3288 111.616 67.9797 112.46C69.0321 112.795 69.9761 113.448 71.0633 113.646C72.1505 113.845 73.5193 113.335 73.6678 112.254L73.9325 111.385Z" fill="#2F2E41"/>
<path d="M73.9325 111.385C75.0275 107.021 71.1031 102.173 66.5495 102.264C61.9295 102.356 58.5297 106.477 56.1926 110.412C53.8556 114.346 51.5329 118.806 47.2425 120.5C45.8227 121.061 44.2842 121.265 42.7649 121.094C41.2455 120.923 39.7929 120.383 38.5371 119.522C37.2814 118.661 36.2618 117.505 35.5699 116.159C34.8779 114.814 34.5351 113.319 34.5723 111.81C33.9963 116.59 34.7944 121.762 37.9177 125.46C41.041 129.157 46.8526 130.823 51.0298 128.338C53.4155 126.919 54.9404 124.453 56.1976 121.999C57.4548 119.546 58.5735 116.959 60.4784 114.953C62.3833 112.947 65.3288 111.616 67.9797 112.46C69.0321 112.795 69.9761 113.448 71.0633 113.646C72.1505 113.845 73.5193 113.335 73.6678 112.254L73.9325 111.385Z" fill="url(#paint5_linear)" fill-opacity="0.6"/>
<path d="M51.167 190.504C50.775 190.051 50.4884 189.518 50.3276 188.943C50.1668 188.369 50.1355 187.766 50.2361 187.179C50.3366 186.591 50.5665 186.032 50.9096 185.541C51.2527 185.051 51.7006 184.64 52.2217 184.339L60.4152 148.091L68.7268 151.458L58.0593 186.03C58.5141 186.927 58.6194 187.959 58.3554 188.928C58.0913 189.897 57.4763 190.737 56.6267 191.288C55.7772 191.84 54.7521 192.065 53.7459 191.92C52.7396 191.776 51.8221 191.272 51.167 190.504H51.167Z" fill="#FFB8B8"/>
<path d="M57.1689 153.291C57.038 153.062 56.9587 152.808 56.9364 152.546C56.914 152.284 56.9492 152.021 57.0395 151.774L60.1902 143.14C60.4584 141.822 61.2451 140.663 62.378 139.917C63.5108 139.17 64.8973 138.898 66.2333 139.159C67.5694 139.42 68.746 140.194 69.5053 141.31C70.2645 142.426 70.5443 143.793 70.2833 145.113L69.8047 154.307C69.791 154.569 69.7202 154.826 69.5971 155.059C69.4739 155.292 69.3014 155.496 69.0912 155.657C68.881 155.818 68.638 155.933 68.3789 155.993C68.1198 156.053 67.8506 156.057 67.5896 156.005L58.4173 154.185C58.1563 154.134 57.9096 154.027 57.6941 153.873C57.4787 153.718 57.2995 153.52 57.1689 153.291Z" fill="#CCCCCC"/>
<path d="M124.3 149.226L124.163 149.207L124.677 145.517C124.756 144.95 124.604 144.376 124.254 143.92C123.904 143.465 123.385 143.165 122.811 143.087L114.889 142.012C114.315 141.934 113.733 142.085 113.271 142.43C112.81 142.776 112.506 143.288 112.427 143.854L109.607 164.101C109.528 164.668 109.681 165.242 110.031 165.697C110.381 166.153 110.9 166.453 111.474 166.531L119.396 167.606C119.97 167.683 120.552 167.533 121.013 167.188C121.475 166.842 121.779 166.33 121.858 165.763L123.798 151.834L123.934 151.852L124.3 149.226Z" fill="#555187"/>
<path d="M122.562 144.17L121.575 144.036C121.605 144.152 121.606 144.273 121.577 144.389C121.549 144.506 121.491 144.613 121.411 144.703C121.33 144.792 121.228 144.86 121.115 144.902C121.001 144.943 120.878 144.956 120.758 144.94L116.429 144.352C116.309 144.336 116.195 144.291 116.097 144.221C115.999 144.151 115.919 144.058 115.866 143.95C115.813 143.843 115.787 143.724 115.791 143.604C115.795 143.485 115.829 143.368 115.89 143.264L114.969 143.139C114.766 143.112 114.56 143.124 114.363 143.175C114.165 143.226 113.979 143.315 113.817 143.437C113.654 143.559 113.517 143.711 113.414 143.886C113.311 144.06 113.243 144.252 113.215 144.452L110.53 163.736C110.502 163.936 110.514 164.139 110.566 164.334C110.618 164.529 110.708 164.712 110.831 164.873C110.955 165.034 111.109 165.169 111.285 165.271C111.462 165.372 111.657 165.439 111.859 165.466L119.452 166.497C119.861 166.552 120.275 166.445 120.604 166.199C120.933 165.953 121.149 165.588 121.205 165.184L123.891 145.9C123.947 145.497 123.839 145.088 123.59 144.763C123.34 144.439 122.97 144.225 122.562 144.17L122.562 144.17Z" fill="white"/>
<path d="M117.177 160.18C119.513 160.18 121.407 158.311 121.407 156.005C121.407 153.699 119.513 151.829 117.177 151.829C114.84 151.829 112.946 153.699 112.946 156.005C112.946 158.311 114.84 160.18 117.177 160.18Z" fill="#6C63FF"/>
<path d="M117.177 160.18C119.513 160.18 121.407 158.311 121.407 156.005C121.407 153.699 119.513 151.829 117.177 151.829C114.84 151.829 112.946 153.699 112.946 156.005C112.946 158.311 114.84 160.18 117.177 160.18Z" fill="url(#paint6_linear)" fill-opacity="0.6"/>
<path d="M116.757 157.597C116.662 157.598 116.57 157.567 116.493 157.511L116.489 157.507L115.495 156.756C115.448 156.721 115.409 156.678 115.38 156.628C115.351 156.579 115.332 156.524 115.324 156.467C115.317 156.41 115.32 156.352 115.335 156.297C115.35 156.242 115.376 156.19 115.412 156.144C115.447 156.099 115.491 156.06 115.541 156.032C115.592 156.003 115.647 155.984 115.705 155.977C115.762 155.97 115.821 155.973 115.877 155.988C115.933 156.003 115.986 156.029 116.032 156.064L116.676 156.551L118.198 154.593C118.233 154.547 118.277 154.509 118.327 154.48C118.377 154.452 118.433 154.433 118.49 154.426C118.548 154.418 118.606 154.422 118.662 154.437C118.718 154.452 118.771 154.477 118.817 154.512C118.91 154.582 118.971 154.686 118.986 154.801C119.001 154.916 118.97 155.032 118.899 155.123L117.109 157.427C117.067 157.48 117.014 157.523 116.953 157.553C116.892 157.582 116.825 157.598 116.757 157.597Z" fill="white"/>
<path d="M156.166 249H9.64316C9.54117 249 9.44336 248.96 9.37124 248.889C9.29911 248.818 9.25859 248.721 9.25859 248.62C9.25859 248.52 9.29911 248.423 9.37124 248.352C9.44336 248.281 9.54117 248.241 9.64316 248.241H156.166C156.268 248.241 156.365 248.281 156.438 248.352C156.51 248.423 156.55 248.52 156.55 248.62C156.55 248.721 156.51 248.818 156.438 248.889C156.365 248.96 156.268 249 156.166 249Z" fill="#555187"/>
</g>
<defs>
<linearGradient id="paint0_linear" x1="-24.7283" y1="139.579" x2="72.6371" y2="137.646" gradientUnits="userSpaceOnUse">
<stop stop-color="#DA5AFA"/>
<stop offset="1" stop-color="#3570EC"/>
</linearGradient>
<linearGradient id="paint1_linear" x1="162.373" y1="54.103" x2="217.573" y2="52.7965" gradientUnits="userSpaceOnUse">
<stop stop-color="#DA5AFA"/>
<stop offset="1" stop-color="#3570EC"/>
</linearGradient>
<linearGradient id="paint2_linear" x1="158.52" y1="126.892" x2="220.347" y2="125.14" gradientUnits="userSpaceOnUse">
<stop stop-color="#DA5AFA"/>
<stop offset="1" stop-color="#3570EC"/>
</linearGradient>
<linearGradient id="paint3_linear" x1="53.7368" y1="98.3977" x2="88.4238" y2="97.6485" gradientUnits="userSpaceOnUse">
<stop stop-color="#DA5AFA"/>
<stop offset="1" stop-color="#3570EC"/>
</linearGradient>
<linearGradient id="paint4_linear" x1="58.9996" y1="109.774" x2="86.6476" y2="108.577" gradientUnits="userSpaceOnUse">
<stop stop-color="#DA5AFA"/>
<stop offset="1" stop-color="#3570EC"/>
</linearGradient>
<linearGradient id="paint5_linear" x1="19.2338" y1="86.653" x2="78.9117" y2="84.7991" gradientUnits="userSpaceOnUse">
<stop stop-color="#DA5AFA"/>
<stop offset="1" stop-color="#3570EC"/>
</linearGradient>
<linearGradient id="paint6_linear" x1="109.716" y1="147.047" x2="122.435" y2="146.772" gradientUnits="userSpaceOnUse">
<stop stop-color="#DA5AFA"/>
<stop offset="1" stop-color="#3570EC"/>
</linearGradient>
<clipPath id="clip0">
<rect width="326" height="249" fill="white"/>
</clipPath>
</defs>
</svg>
