<svg width="321" height="248" viewBox="0 0 321 248" fill="none" xmlns="http://www.w3.org/2000/svg">
<g clip-path="url(#clip0)">
<path d="M14.2358 240.926C24.2414 248.122 37.2078 248.483 49.7413 247.599C51.4914 247.476 53.2292 247.331 54.9508 247.175C54.9612 247.172 54.9749 247.173 54.9854 247.171C55.0682 247.163 55.1511 247.155 55.2303 247.15C55.5856 247.117 55.9411 247.084 56.2931 247.051L56.21 247.209L55.949 247.701C56.0428 247.536 56.1365 247.375 56.2303 247.21C56.2579 247.161 56.2888 247.112 56.3162 247.062C59.5631 241.422 62.7834 235.574 63.6048 229.133C64.4539 222.447 62.0677 214.877 56.1738 211.591C55.4009 211.161 54.5823 210.819 53.7333 210.57C53.3808 210.463 53.0236 210.377 52.6623 210.3C50.4518 209.81 48.1505 209.916 45.995 210.609C43.8396 211.301 41.9076 212.554 40.398 214.238C38.8883 215.923 37.8553 217.979 37.4053 220.194C36.9553 222.41 37.1044 224.705 37.8374 226.844C32.8405 221.728 33.7726 213.43 35.4963 206.494C37.2233 199.559 39.3141 191.842 35.8014 185.613C33.8488 182.145 30.4151 179.994 26.5615 179.127C26.4433 179.102 26.3253 179.077 26.2068 179.055C21.6154 178.126 16.8422 178.961 12.8406 181.393C5.47228 186.028 1.68784 194.817 0.459568 203.427C-1.51941 217.281 2.86009 232.744 14.2358 240.926Z" fill="white"/>
<path d="M14.2358 240.926C24.2414 248.122 37.2078 248.483 49.7413 247.599C51.4914 247.476 53.2292 247.331 54.9508 247.175C54.9612 247.172 54.9749 247.173 54.9854 247.171C55.0682 247.163 55.1511 247.155 55.2303 247.15C55.5856 247.117 55.9411 247.084 56.2931 247.051L56.21 247.209L55.949 247.701C56.0428 247.536 56.1365 247.375 56.2303 247.21C56.2579 247.161 56.2888 247.112 56.3162 247.062C59.5631 241.422 62.7834 235.574 63.6048 229.133C64.4539 222.447 62.0677 214.877 56.1738 211.591C55.4009 211.161 54.5823 210.819 53.7333 210.57C53.3808 210.463 53.0236 210.377 52.6623 210.3C50.4518 209.81 48.1505 209.916 45.995 210.609C43.8396 211.301 41.9076 212.554 40.398 214.238C38.8883 215.923 37.8553 217.979 37.4053 220.194C36.9553 222.41 37.1044 224.705 37.8374 226.844C32.8405 221.728 33.7726 213.43 35.4963 206.494C37.2233 199.559 39.3141 191.842 35.8014 185.613C33.8488 182.145 30.4151 179.994 26.5615 179.127C26.4433 179.102 26.3253 179.077 26.2068 179.055C21.6154 178.126 16.8422 178.961 12.8406 181.393C5.47228 186.028 1.68784 194.817 0.459568 203.427C-1.51941 217.281 2.86009 232.744 14.2358 240.926Z" fill="url(#paint0_linear)" fill-opacity="0.6"/>
<path d="M17.4662 218.717C17.7566 221.773 18.4919 224.77 19.6489 227.614C20.7151 230.131 22.1523 232.475 23.9127 234.567C27.5088 238.886 32.2639 242.133 37.428 244.296C41.3766 245.911 45.5138 247.021 49.7412 247.599C51.4913 247.476 53.2291 247.331 54.9507 247.175C54.9611 247.173 54.9748 247.173 54.9853 247.171C55.0681 247.163 55.151 247.155 55.2302 247.15C55.5855 247.117 55.941 247.084 56.293 247.051L56.2099 247.209L55.9489 247.701C56.0427 247.536 56.1364 247.375 56.2302 247.21C56.2578 247.161 56.2887 247.112 56.3161 247.062C53.1469 243.91 50.7806 240.045 49.4156 235.792C48.0507 231.538 47.7268 227.02 48.471 222.616C49.2499 218.243 51.053 214.115 53.7332 210.57C53.3807 210.463 53.0235 210.377 52.6622 210.3C51.6435 211.69 50.75 213.167 49.9921 214.715C47.2724 220.233 46.4048 226.479 47.5175 232.528C48.5521 238.002 51.1294 243.068 54.947 247.13C54.6127 247.107 54.2752 247.08 53.9449 247.05C47.6886 246.52 41.445 245.178 35.7704 242.427C30.9199 240.133 26.7089 236.684 23.5082 232.383C20.0714 227.651 18.5571 221.959 18.2969 216.174C18.0211 209.981 18.826 203.679 20.2417 197.656C21.6873 191.482 23.8843 185.507 26.7837 179.865C26.8485 179.737 26.8616 179.589 26.8203 179.452C26.7789 179.315 26.6862 179.198 26.5614 179.127C26.4574 179.057 26.33 179.031 26.2067 179.055C26.1464 179.07 26.0905 179.1 26.0431 179.14C25.9957 179.181 25.9581 179.232 25.9331 179.289C25.5754 179.985 25.2244 180.683 24.8867 181.388C22.0744 187.262 20.004 193.462 18.7229 199.845C17.4792 206.004 16.8154 212.446 17.4662 218.717Z" fill="white"/>
<rect x="142.538" width="178.462" height="213.234" rx="7" fill="white"/>
<path d="M314.562 213.22H149.081C147.375 213.218 145.738 212.54 144.532 211.335C143.325 210.13 142.646 208.497 142.644 206.793V6.42683C142.646 4.72292 143.325 3.08934 144.532 1.88449C145.738 0.679644 147.375 0.00191817 149.081 0H314.562C316.269 0.00191817 317.905 0.679644 319.112 1.88449C320.319 3.08934 320.998 4.72292 321 6.42683V206.793C320.998 208.497 320.319 210.13 319.112 211.335C317.905 212.54 316.269 213.218 314.562 213.22ZM149.081 0.756098C147.576 0.757799 146.132 1.35579 145.067 2.41889C144.002 3.48199 143.403 4.92338 143.401 6.42683V206.793C143.403 208.296 144.002 209.738 145.067 210.801C146.132 211.864 147.576 212.462 149.081 212.463H314.562C316.068 212.462 317.512 211.864 318.577 210.801C319.642 209.738 320.241 208.296 320.243 206.793V6.42683C320.241 4.92338 319.642 3.48199 318.577 2.41889C317.512 1.35579 316.068 0.757799 314.562 0.756098H149.081Z" fill="#555187"/>
<path d="M320.621 15.7232H143.023V16.4793H320.621V15.7232Z" fill="#555187"/>
<path d="M151.732 11.3415C153.405 11.3415 154.762 9.98741 154.762 8.31709C154.762 6.64676 153.405 5.29269 151.732 5.29269C150.059 5.29269 148.703 6.64676 148.703 8.31709C148.703 9.98741 150.059 11.3415 151.732 11.3415Z" fill="#555187"/>
<path d="M161.199 11.3415C162.872 11.3415 164.229 9.98741 164.229 8.31709C164.229 6.64676 162.872 5.29269 161.199 5.29269C159.526 5.29269 158.17 6.64676 158.17 8.31709C158.17 9.98741 159.526 11.3415 161.199 11.3415Z" fill="#555187"/>
<path d="M170.666 11.3415C172.339 11.3415 173.696 9.98741 173.696 8.31709C173.696 6.64676 172.339 5.29269 170.666 5.29269C168.993 5.29269 167.637 6.64676 167.637 8.31709C167.637 9.98741 168.993 11.3415 170.666 11.3415Z" fill="#555187"/>
<path d="M288.911 45.7439H170.764C169.459 45.7439 168.207 45.2261 167.284 44.3044C166.36 43.3828 165.842 42.1327 165.842 40.8293C165.842 39.5258 166.36 38.2758 167.284 37.3541C168.207 36.4324 169.459 35.9146 170.764 35.9146H288.911C290.217 35.9146 291.469 36.4324 292.392 37.3541C293.315 38.2758 293.834 39.5258 293.834 40.8293C293.834 42.1327 293.315 43.3828 292.392 44.3044C291.469 45.2261 290.217 45.7439 288.911 45.7439ZM170.764 36.6707C169.66 36.6707 168.6 37.1089 167.819 37.8888C167.038 38.6686 166.599 39.7264 166.599 40.8293C166.599 41.9322 167.038 42.9899 167.819 43.7698C168.6 44.5497 169.66 44.9878 170.764 44.9878H288.911C290.016 44.9878 291.075 44.5497 291.856 43.7698C292.638 42.9899 293.076 41.9322 293.076 40.8293C293.076 39.7264 292.638 38.6686 291.856 37.8888C291.075 37.1089 290.016 36.6707 288.911 36.6707H170.764Z" fill="#555187"/>
<path d="M214.971 114.927H168.394C166.687 114.925 165.051 114.247 163.844 113.042C162.637 111.837 161.958 110.204 161.957 108.5V70.3171C161.958 68.6132 162.637 66.9796 163.844 65.7747C165.051 64.5699 166.687 63.8922 168.394 63.8902H214.971C216.678 63.8922 218.314 64.5699 219.521 65.7747C220.728 66.9796 221.407 68.6132 221.409 70.3171V108.5C221.407 110.204 220.728 111.837 219.521 113.042C218.314 114.247 216.678 114.925 214.971 114.927ZM168.394 64.6463C166.888 64.648 165.444 65.246 164.379 66.3091C163.315 67.3722 162.716 68.8136 162.714 70.3171V108.5C162.716 110.003 163.315 111.445 164.379 112.508C165.444 113.571 166.888 114.169 168.394 114.171H214.971C216.477 114.169 217.921 113.571 218.986 112.508C220.05 111.445 220.649 110.003 220.651 108.5V70.3171C220.649 68.8136 220.05 67.3722 218.986 66.3091C217.921 65.246 216.477 64.648 214.971 64.6463H168.394Z" fill="#555187"/>
<path d="M295.25 65.7805H248.673C245.327 65.7805 242.614 68.4886 242.614 71.8293V110.012C242.614 113.353 245.327 116.061 248.673 116.061H295.25C298.596 116.061 301.309 113.353 301.309 110.012V71.8293C301.309 68.4886 298.596 65.7805 295.25 65.7805Z" fill="#F2F2F2"/>
<path d="M214.971 186H168.394C166.687 185.998 165.051 185.32 163.844 184.115C162.637 182.911 161.958 181.277 161.957 179.573V141.39C161.958 139.686 162.637 138.053 163.844 136.848C165.051 135.643 166.687 134.965 168.394 134.963H214.971C216.678 134.965 218.314 135.643 219.521 136.848C220.728 138.053 221.407 139.686 221.409 141.39V179.573C221.407 181.277 220.728 182.911 219.521 184.115C218.314 185.32 216.678 185.998 214.971 186ZM168.394 135.72C166.888 135.721 165.444 136.319 164.379 137.382C163.315 138.445 162.716 139.887 162.714 141.39V179.573C162.716 181.077 163.315 182.518 164.379 183.581C165.444 184.644 166.888 185.242 168.394 185.244H214.971C216.477 185.242 217.921 184.644 218.986 183.581C220.05 182.518 220.649 181.077 220.651 179.573V141.39C220.649 139.887 220.05 138.445 218.986 137.382C217.921 136.319 216.477 135.721 214.971 135.72H168.394Z" fill="#555187"/>
<path d="M295.25 136.854H248.673C245.327 136.854 242.614 139.562 242.614 142.902V181.085C242.614 184.426 245.327 187.134 248.673 187.134H295.25C298.596 187.134 301.309 184.426 301.309 181.085V142.902C301.309 139.562 298.596 136.854 295.25 136.854Z" fill="#F2F2F2"/>
<path d="M180.092 105.692C180.084 105.692 180.075 105.692 180.067 105.692L174.769 105.496C174.604 105.491 174.446 105.426 174.325 105.314C174.203 105.202 174.127 105.05 174.109 104.886C173.744 101.638 172.244 85.0872 178.53 78.2081C179.42 77.2149 180.52 76.4318 181.75 75.9157C182.981 75.3997 184.311 75.1636 185.645 75.2245C185.699 75.228 185.753 75.2165 185.801 75.1915C185.849 75.1664 185.889 75.1287 185.918 75.0824L187.2 73.0703C187.27 72.9613 187.37 72.8741 187.487 72.8186C187.604 72.763 187.735 72.7414 187.864 72.7561C188.892 72.8802 194.133 73.4657 196.337 72.8287C196.467 72.7904 196.606 72.7912 196.735 72.831C196.865 72.8708 196.98 72.9478 197.066 73.0524L198.75 75.1073C198.779 75.1445 198.816 75.1742 198.859 75.194C198.902 75.2138 198.948 75.2231 198.996 75.221C199.852 75.2039 202.856 75.3694 205.484 78.3047C208.33 81.483 211.268 88.6541 209.098 104.767C209.075 104.932 208.993 105.084 208.868 105.194C208.742 105.304 208.58 105.365 208.413 105.366H204.241C204.075 105.365 203.915 105.305 203.79 105.197C203.664 105.089 203.582 104.939 203.558 104.776L202.195 95.3864C202.183 95.3093 202.144 95.2391 202.083 95.1899C202.022 95.1407 201.945 95.116 201.867 95.1208C201.789 95.1256 201.716 95.1595 201.662 95.2157C201.608 95.272 201.577 95.3465 201.575 95.4245L201.481 99.8328C201.478 99.9635 201.438 100.091 201.366 100.2C201.293 100.309 201.191 100.395 201.071 100.448C199.584 101.101 191.725 104.163 183.038 100.328C182.92 100.275 182.82 100.191 182.748 100.084C182.675 99.978 182.634 99.8536 182.628 99.7251L182.457 95.7198C182.454 95.6416 182.421 95.5676 182.365 95.5124C182.31 95.4573 182.235 95.4252 182.157 95.4224C182.079 95.4197 182.002 95.4466 181.943 95.4977C181.883 95.5488 181.846 95.6204 181.837 95.6982L180.778 105.08C180.758 105.248 180.678 105.403 180.551 105.516C180.425 105.629 180.261 105.691 180.092 105.692Z" fill="#6C63FF"/>
<path d="M180.092 105.692C180.084 105.692 180.075 105.692 180.067 105.692L174.769 105.496C174.604 105.491 174.446 105.426 174.325 105.314C174.203 105.202 174.127 105.05 174.109 104.886C173.744 101.638 172.244 85.0872 178.53 78.2081C179.42 77.2149 180.52 76.4318 181.75 75.9157C182.981 75.3997 184.311 75.1636 185.645 75.2245C185.699 75.228 185.753 75.2165 185.801 75.1915C185.849 75.1664 185.889 75.1287 185.918 75.0824L187.2 73.0703C187.27 72.9613 187.37 72.8741 187.487 72.8186C187.604 72.763 187.735 72.7414 187.864 72.7561C188.892 72.8802 194.133 73.4657 196.337 72.8287C196.467 72.7904 196.606 72.7912 196.735 72.831C196.865 72.8708 196.98 72.9478 197.066 73.0524L198.75 75.1073C198.779 75.1445 198.816 75.1742 198.859 75.194C198.902 75.2138 198.948 75.2231 198.996 75.221C199.852 75.2039 202.856 75.3694 205.484 78.3047C208.33 81.483 211.268 88.6541 209.098 104.767C209.075 104.932 208.993 105.084 208.868 105.194C208.742 105.304 208.58 105.365 208.413 105.366H204.241C204.075 105.365 203.915 105.305 203.79 105.197C203.664 105.089 203.582 104.939 203.558 104.776L202.195 95.3864C202.183 95.3093 202.144 95.2391 202.083 95.1899C202.022 95.1407 201.945 95.116 201.867 95.1208C201.789 95.1256 201.716 95.1595 201.662 95.2157C201.608 95.272 201.577 95.3465 201.575 95.4245L201.481 99.8328C201.478 99.9635 201.438 100.091 201.366 100.2C201.293 100.309 201.191 100.395 201.071 100.448C199.584 101.101 191.725 104.163 183.038 100.328C182.92 100.275 182.82 100.191 182.748 100.084C182.675 99.978 182.634 99.8536 182.628 99.7251L182.457 95.7198C182.454 95.6416 182.421 95.5676 182.365 95.5124C182.31 95.4573 182.235 95.4252 182.157 95.4224C182.079 95.4197 182.002 95.4466 181.943 95.4977C181.883 95.5488 181.846 95.6204 181.837 95.6982L180.778 105.08C180.758 105.248 180.678 105.403 180.551 105.516C180.425 105.629 180.261 105.691 180.092 105.692Z" fill="url(#paint1_linear)" fill-opacity="0.6"/>
<path d="M202.008 174.862H202.004L181.244 174.731C181.093 174.73 180.948 174.674 180.835 174.573C180.723 174.473 180.651 174.335 180.633 174.185L178.545 156.465C178.532 156.35 178.479 156.245 178.394 156.167C178.309 156.089 178.199 156.044 178.084 156.041C176.436 155.987 172.515 155.612 171.702 153.295C170.979 151.231 172.958 148.187 177.585 144.248C177.664 144.181 177.758 144.134 177.859 144.113C177.961 144.091 178.066 144.095 178.165 144.125C178.264 144.154 178.355 144.208 178.428 144.282C178.501 144.355 178.554 144.445 178.583 144.545L180.985 152.818C181.014 152.918 181.075 153.005 181.158 153.067C181.24 153.13 181.341 153.164 181.445 153.165L201.128 153.297C201.231 153.298 201.331 153.266 201.415 153.205C201.498 153.145 201.56 153.059 201.59 152.96L204.263 144.47C204.293 144.375 204.345 144.289 204.415 144.219C204.485 144.149 204.571 144.096 204.666 144.066C204.761 144.036 204.862 144.029 204.96 144.046C205.058 144.063 205.15 144.104 205.229 144.164C207.053 145.555 212.928 150.329 211.961 153.382C211.455 154.982 209.17 155.873 205.171 156.032C205.057 156.036 204.947 156.081 204.863 156.159C204.778 156.237 204.725 156.342 204.712 156.456L202.622 174.316C202.605 174.466 202.533 174.605 202.419 174.706C202.306 174.807 202.159 174.862 202.008 174.862Z" fill="#6C63FF"/>
<path d="M202.008 174.862H202.004L181.244 174.731C181.093 174.73 180.948 174.674 180.835 174.573C180.723 174.473 180.651 174.335 180.633 174.185L178.545 156.465C178.532 156.35 178.479 156.245 178.394 156.167C178.309 156.089 178.199 156.044 178.084 156.041C176.436 155.987 172.515 155.612 171.702 153.295C170.979 151.231 172.958 148.187 177.585 144.248C177.664 144.181 177.758 144.134 177.859 144.113C177.961 144.091 178.066 144.095 178.165 144.125C178.264 144.154 178.355 144.208 178.428 144.282C178.501 144.355 178.554 144.445 178.583 144.545L180.985 152.818C181.014 152.918 181.075 153.005 181.158 153.067C181.24 153.13 181.341 153.164 181.445 153.165L201.128 153.297C201.231 153.298 201.331 153.266 201.415 153.205C201.498 153.145 201.56 153.059 201.59 152.96L204.263 144.47C204.293 144.375 204.345 144.289 204.415 144.219C204.485 144.149 204.571 144.096 204.666 144.066C204.761 144.036 204.862 144.029 204.96 144.046C205.058 144.063 205.15 144.104 205.229 144.164C207.053 145.555 212.928 150.329 211.961 153.382C211.455 154.982 209.17 155.873 205.171 156.032C205.057 156.036 204.947 156.081 204.863 156.159C204.778 156.237 204.725 156.342 204.712 156.456L202.622 174.316C202.605 174.466 202.533 174.605 202.419 174.706C202.306 174.807 202.159 174.862 202.008 174.862Z" fill="url(#paint2_linear)" fill-opacity="0.6"/>
<path d="M292.978 100.241C286.455 101.495 280.303 104.215 274.989 108.195C274.72 107.48 274.214 106.88 273.555 106.494C273.105 106.215 272.613 106.009 272.099 105.883C271.631 105.764 271.182 106.048 270.769 106.457C270.294 106.982 269.895 107.571 269.585 108.207C262.456 103.322 251.642 100.204 251.642 100.204V99.2272C251.651 98.997 251.674 98.7675 251.712 98.5402C251.749 98.2777 251.795 98.0456 251.853 97.7617C252.771 93.1024 256.398 82.4557 256.398 82.4557H260.499L268.451 84.1044L277.396 83.5579L286.406 81.6863L287.574 81.442C289.522 82.9686 291.733 93.655 292.602 98.2044C292.712 98.7815 292.798 99.2578 292.862 99.6089C292.938 100.006 292.978 100.241 292.978 100.241Z" fill="white"/>
<path d="M268.507 147.144C268.507 147.144 266.602 147.619 263.647 155.608C260.693 163.596 259.646 173.918 259.646 173.918C259.646 173.918 257.985 176.727 265.076 176.915C265.076 176.915 264.506 178.769 268.507 178.485C272.508 178.2 271.932 178.203 271.932 178.203C271.932 178.203 274.504 176.586 275.647 176.87C276.791 177.155 277.505 177.252 278.743 178.297C279.981 179.342 283.937 178.916 283.984 178.109C284.016 177.712 284.016 177.314 283.984 176.917C283.984 176.917 290.034 177.299 288.891 172.923C287.747 168.547 286.795 161.366 286.795 161.366C286.795 161.366 283.699 147.337 280.172 147.147C276.644 146.956 268.507 147.144 268.507 147.144Z" fill="white"/>
<path d="M72.948 133.677C79.2221 133.677 84.3083 128.599 84.3083 122.335C84.3083 116.071 79.2221 110.994 72.948 110.994C66.6739 110.994 61.5878 116.071 61.5878 122.335C61.5878 128.599 66.6739 133.677 72.948 133.677Z" fill="#2F2E41"/>
<path d="M73.9023 133.698C79.0389 133.698 83.203 129.541 83.203 124.413C83.203 119.285 79.0389 115.128 73.9023 115.128C68.7657 115.128 64.6017 119.285 64.6017 124.413C64.6017 129.541 68.7657 133.698 73.9023 133.698Z" fill="#FFB8B8"/>
<path d="M109.323 152.655C109.175 152.803 109.039 152.963 108.917 153.133L90.1488 152.471L88.0023 148.452L81.5033 150.893L84.6108 158.377C84.8619 158.982 85.3026 159.489 85.8668 159.822C86.431 160.155 87.0883 160.296 87.74 160.225L108.978 157.897C109.471 158.535 110.147 159.007 110.916 159.252C111.686 159.497 112.511 159.502 113.283 159.267C114.055 159.032 114.737 158.568 115.239 157.936C115.74 157.305 116.037 156.536 116.09 155.731C116.143 154.927 115.949 154.126 115.535 153.434C115.121 152.743 114.505 152.194 113.771 151.86C113.036 151.526 112.217 151.423 111.423 151.565C110.628 151.707 109.896 152.087 109.323 152.655H109.323Z" fill="#FFB8B8"/>
<path d="M79.0034 154.507C78.7643 154.4 78.5511 154.242 78.3784 154.046C78.2057 153.849 78.0775 153.617 78.0027 153.366L75.3887 144.607C74.821 143.394 74.7583 142.006 75.2143 140.747C75.6703 139.488 76.6078 138.461 77.8213 137.891C79.0347 137.321 80.4251 137.254 81.6875 137.706C82.9499 138.158 83.9814 139.091 84.5557 140.301L89.6194 147.95C89.7639 148.169 89.8596 148.416 89.8999 148.674C89.9403 148.933 89.9243 149.197 89.8531 149.449C89.7819 149.701 89.6572 149.934 89.4875 150.134C89.3177 150.333 89.1069 150.493 88.8694 150.604L80.5224 154.496C80.285 154.607 80.0263 154.665 79.7642 154.667C79.502 154.669 79.2425 154.614 79.0034 154.507Z" fill="#CCCCCC"/>
<path d="M97.4884 243.436L101.566 241.22L94.9449 224.464L88.9269 227.734L97.4884 243.436Z" fill="#FFB8B8"/>
<path d="M95.7238 242.672L103.754 238.308L103.754 238.308C104.426 237.942 105.164 237.713 105.924 237.632C106.685 237.552 107.455 237.621 108.188 237.838C108.922 238.054 109.606 238.412 110.202 238.892C110.797 239.372 111.291 239.965 111.657 240.636L111.748 240.802L98.6001 247.947L95.7238 242.672Z" fill="#2F2E41"/>
<path d="M52.6202 243.454H57.2624L59.4712 225.577L52.6191 225.577L52.6202 243.454Z" fill="#FFB8B8"/>
<path d="M51.4361 241.941L60.5788 241.941H60.5791C61.3443 241.941 62.1019 242.091 62.8088 242.383C63.5157 242.676 64.158 243.104 64.6991 243.644C65.2401 244.184 65.6693 244.826 65.9621 245.531C66.2549 246.237 66.4056 246.993 66.4056 247.757V247.946L51.4364 247.947L51.4361 241.941Z" fill="#2F2E41"/>
<path d="M81.4683 164.109L82.983 182.256L99.879 232.86C99.9454 233.059 99.9697 233.269 99.9502 233.478C99.9306 233.687 99.8678 233.89 99.7657 234.073C99.6635 234.256 99.5243 234.417 99.3568 234.543C99.1893 234.67 98.9972 234.76 98.7928 234.809L93.6144 236.04C93.2828 236.119 92.9343 236.084 92.6252 235.94C92.3161 235.797 92.0645 235.554 91.911 235.25L70.3099 192.472C70.2395 192.333 70.1276 192.219 69.9895 192.145C69.8515 192.072 69.694 192.043 69.5389 192.063C69.3837 192.082 69.2384 192.149 69.1229 192.254C69.0074 192.36 68.9274 192.498 68.8939 192.651L59.3877 235.885C59.3137 236.222 59.1266 236.523 58.8576 236.739C58.5885 236.955 58.2535 237.073 57.9082 237.073H53.0908C52.8902 237.073 52.6915 237.033 52.5063 236.956C52.3212 236.879 52.1533 236.766 52.0124 236.623C51.8716 236.481 51.7606 236.311 51.6859 236.125C51.6112 235.939 51.5743 235.741 51.5774 235.54C52.0188 205.562 50.5625 171.403 62.1559 166L64.0493 161.085L81.4683 164.109Z" fill="#2F2E41"/>
<path d="M63.5039 162.372L61.5516 150.585C61.2285 148.652 61.398 146.669 62.0444 144.819C62.6909 142.969 63.7936 141.311 65.2508 139.998C66.6751 138.697 68.4045 137.776 70.2794 137.319C72.1544 136.861 74.1145 136.882 75.9791 137.38C76.0898 137.409 76.2005 137.44 76.3115 137.471C78.6057 138.127 80.6431 139.47 82.1483 141.319C83.6536 143.167 84.5542 145.433 84.7285 147.809C85.1011 152.928 84.7677 160.354 81.0636 166.662L80.9917 166.785L63.5039 162.372Z" fill="#CCCCCC"/>
<path d="M83.1545 119.478C81.0292 120.94 78.5066 121.719 75.9254 121.708C76.8461 122.346 77.8943 122.776 78.9978 122.97C75.5659 123.705 72.0189 123.725 68.579 123.029C67.8143 122.906 67.0765 122.653 66.3979 122.281C66.0597 122.092 65.7651 121.835 65.5331 121.525C65.3012 121.215 65.1371 120.86 65.0516 120.483C64.823 119.18 65.8406 117.995 66.898 117.197C68.5171 115.993 70.3838 115.164 72.3632 114.769C74.3427 114.374 76.3853 114.424 78.3433 114.914C79.6218 115.244 80.9025 115.801 81.733 116.826C82.5634 117.851 82.8094 119.431 82.0182 120.487L83.1545 119.478Z" fill="#2F2E41"/>
<path d="M72.7985 110.938C73.8767 106.592 70.0126 101.763 65.5288 101.854C60.9796 101.945 57.632 106.049 55.3308 109.968C53.0295 113.887 50.7425 118.329 46.5179 120.016C45.1199 120.575 43.605 120.778 42.1089 120.608C40.6129 120.438 39.1825 119.9 37.946 119.042C36.7096 118.184 35.7056 117.033 35.0243 115.693C34.3429 114.352 34.0054 112.864 34.0421 111.361C33.4748 116.122 34.2607 121.273 37.3361 124.956C40.4115 128.638 46.1339 130.298 50.2471 127.823C52.5963 126.41 54.0978 123.953 55.3357 121.509C56.5736 119.066 57.6751 116.489 59.5508 114.491C61.4265 112.494 64.3267 111.168 66.9371 112.008C67.9732 112.342 68.9028 112.992 69.9733 113.19C71.0439 113.388 72.3917 112.88 72.5379 111.803L72.7985 110.938Z" fill="#2F2E41"/>
<path d="M50.3823 189.739C49.9962 189.287 49.7141 188.757 49.5557 188.185C49.3973 187.612 49.3666 187.012 49.4656 186.427C49.5646 185.841 49.791 185.285 50.1288 184.796C50.4666 184.307 50.9076 183.899 51.4208 183.599L59.4886 147.496L67.6727 150.85L57.1689 185.283C57.6167 186.177 57.7204 187.204 57.4604 188.169C57.2004 189.134 56.5948 189.971 55.7582 190.52C54.9217 191.07 53.9124 191.293 52.9216 191.149C51.9308 191.005 51.0273 190.504 50.3823 189.739H50.3823Z" fill="#FFB8B8"/>
<path d="M56.2921 152.675C56.1632 152.447 56.0851 152.194 56.0631 151.934C56.0411 151.673 56.0758 151.41 56.1646 151.164L59.267 142.565C59.5311 141.253 60.3058 140.098 61.4213 139.355C62.5367 138.611 63.9019 138.34 65.2175 138.6C66.5331 138.86 67.6917 139.631 68.4392 140.742C69.1868 141.854 69.4623 143.216 69.2054 144.53L68.7341 153.687C68.7206 153.949 68.6509 154.204 68.5296 154.436C68.4084 154.668 68.2385 154.871 68.0315 155.032C67.8245 155.192 67.5853 155.306 67.3302 155.366C67.075 155.426 66.8099 155.43 66.5529 155.379L57.5213 153.566C57.2643 153.515 57.0214 153.408 56.8093 153.255C56.5971 153.101 56.4207 152.903 56.2921 152.675Z" fill="#CCCCCC"/>
<path d="M122.393 148.626L122.259 148.608L122.765 144.932C122.843 144.368 122.693 143.796 122.348 143.342C122.003 142.888 121.492 142.59 120.927 142.512L113.127 141.442C112.561 141.364 111.989 141.514 111.534 141.858C111.079 142.202 110.78 142.713 110.703 143.277L107.926 163.442C107.848 164.006 107.998 164.578 108.343 165.032C108.688 165.486 109.199 165.784 109.764 165.862L117.565 166.932C118.13 167.01 118.703 166.86 119.157 166.516C119.612 166.172 119.911 165.662 119.989 165.097L121.899 151.224L122.033 151.243L122.393 148.626Z" fill="#555187"/>
<path d="M120.682 143.591L119.711 143.457C119.74 143.573 119.741 143.694 119.713 143.81C119.684 143.925 119.628 144.032 119.549 144.121C119.469 144.21 119.369 144.278 119.257 144.32C119.145 144.361 119.025 144.374 118.906 144.358L114.644 143.773C114.525 143.756 114.413 143.711 114.316 143.641C114.22 143.572 114.142 143.479 114.089 143.372C114.037 143.265 114.011 143.147 114.015 143.028C114.019 142.909 114.053 142.792 114.113 142.689L113.205 142.565C113.006 142.537 112.803 142.549 112.609 142.6C112.414 142.651 112.231 142.74 112.071 142.861C111.911 142.983 111.776 143.134 111.674 143.308C111.573 143.481 111.506 143.673 111.479 143.872L108.834 163.078C108.807 163.277 108.819 163.48 108.87 163.674C108.921 163.868 109.01 164.051 109.131 164.211C109.253 164.371 109.405 164.505 109.579 164.607C109.752 164.708 109.944 164.775 110.144 164.802L117.62 165.828C118.022 165.883 118.43 165.777 118.754 165.531C119.078 165.286 119.291 164.923 119.346 164.521L121.991 145.314C122.046 144.912 121.939 144.505 121.694 144.182C121.448 143.859 121.084 143.646 120.682 143.591L120.682 143.591Z" fill="white"/>
<path d="M115.38 159.537C117.68 159.537 119.545 157.675 119.545 155.378C119.545 153.081 117.68 151.219 115.38 151.219C113.079 151.219 111.214 153.081 111.214 155.378C111.214 157.675 113.079 159.537 115.38 159.537Z" fill="#6C63FF"/>
<path d="M115.38 159.537C117.68 159.537 119.545 157.675 119.545 155.378C119.545 153.081 117.68 151.219 115.38 151.219C113.079 151.219 111.214 153.081 111.214 155.378C111.214 157.675 113.079 159.537 115.38 159.537Z" fill="url(#paint3_linear)" fill-opacity="0.6"/>
<path d="M114.967 156.964C114.873 156.965 114.782 156.934 114.707 156.878L114.702 156.875L113.723 156.127C113.678 156.092 113.639 156.049 113.611 155.999C113.582 155.95 113.563 155.895 113.556 155.839C113.548 155.782 113.552 155.725 113.566 155.669C113.581 155.614 113.607 155.562 113.641 155.517C113.676 155.472 113.72 155.434 113.769 155.405C113.819 155.376 113.873 155.358 113.93 155.351C113.987 155.343 114.045 155.347 114.1 155.362C114.155 155.377 114.207 155.402 114.252 155.437L114.886 155.923L116.385 153.972C116.419 153.926 116.463 153.889 116.512 153.86C116.562 153.831 116.616 153.813 116.673 153.805C116.729 153.798 116.787 153.802 116.842 153.817C116.897 153.831 116.949 153.857 116.994 153.891C117.086 153.962 117.146 154.065 117.161 154.179C117.176 154.293 117.145 154.409 117.075 154.5L115.313 156.795C115.272 156.848 115.22 156.891 115.16 156.92C115.1 156.949 115.034 156.965 114.967 156.964Z" fill="white"/>
<path d="M153.77 248H9.49525C9.39482 248 9.29851 247.96 9.22749 247.889C9.15648 247.818 9.11658 247.722 9.11658 247.622C9.11658 247.522 9.15648 247.426 9.22749 247.355C9.29851 247.284 9.39482 247.244 9.49525 247.244H153.77C153.871 247.244 153.967 247.284 154.038 247.355C154.109 247.426 154.149 247.522 154.149 247.622C154.149 247.722 154.109 247.818 154.038 247.889C153.967 247.96 153.871 248 153.77 248Z" fill="#555187"/>
</g>
<defs>
<linearGradient id="paint0_linear" x1="-24.3491" y1="139.018" x2="71.5239" y2="137.137" gradientUnits="userSpaceOnUse">
<stop stop-color="#DA5AFA"/>
<stop offset="1" stop-color="#3570EC"/>
</linearGradient>
<linearGradient id="paint1_linear" x1="159.883" y1="53.8857" x2="214.237" y2="52.6138" gradientUnits="userSpaceOnUse">
<stop stop-color="#DA5AFA"/>
<stop offset="1" stop-color="#3570EC"/>
</linearGradient>
<linearGradient id="paint2_linear" x1="156.089" y1="126.383" x2="216.968" y2="124.677" gradientUnits="userSpaceOnUse">
<stop stop-color="#DA5AFA"/>
<stop offset="1" stop-color="#3570EC"/>
</linearGradient>
<linearGradient id="paint3_linear" x1="108.033" y1="146.456" x2="120.557" y2="146.189" gradientUnits="userSpaceOnUse">
<stop stop-color="#DA5AFA"/>
<stop offset="1" stop-color="#3570EC"/>
</linearGradient>
<clipPath id="clip0">
<rect width="321" height="248" fill="white"/>
</clipPath>
</defs>
</svg>
