<svg width="150" height="150" viewBox="0 0 150 150" fill="none" xmlns="http://www.w3.org/2000/svg">
<path d="M75 0C33.5685 0 0 33.5685 0 75C0 116.431 33.5685 150 75 150C116.431 150 150 116.431 150 75C150 33.5685 116.431 0 75 0ZM140.323 75C140.323 110.897 111.26 140.323 75 140.323C39.1028 140.323 9.67742 111.26 9.67742 75C9.67742 39.1028 38.7399 9.67742 75 9.67742C110.897 9.67742 140.323 38.7399 140.323 75ZM95.2923 101.704L70.7359 83.8609C69.7984 83.1653 69.254 82.0766 69.254 80.9274V32.6613C69.254 30.6653 70.8871 29.0323 72.8831 29.0323H77.1169C79.1129 29.0323 80.746 30.6653 80.746 32.6613V76.9052L102.067 92.4194C103.7 93.5988 104.032 95.8669 102.853 97.5L100.373 100.917C99.1936 102.52 96.9254 102.883 95.2923 101.704Z" fill="url(#paint0_linear)" fill-opacity="0.6"/>
<defs>
<linearGradient id="paint0_linear" x1="-57.2727" y1="-85.9091" x2="168.22" y2="-90.716" gradientUnits="userSpaceOnUse">
<stop stop-color="#DA5AFA"/>
<stop offset="1" stop-color="#3570EC"/>
</linearGradient>
</defs>
</svg>
