<svg width="16" height="16" viewBox="0 0 16 16" fill="none" xmlns="http://www.w3.org/2000/svg">
<path d="M14.2857 0H1.71429C1.25963 0 0.823594 0.180612 0.502103 0.502103C0.180612 0.823594 0 1.25963 0 1.71429L0 14.2857C0 14.7404 0.180612 15.1764 0.502103 15.4979C0.823594 15.8194 1.25963 16 1.71429 16H14.2857C14.7404 16 15.1764 15.8194 15.4979 15.4979C15.8194 15.1764 16 14.7404 16 14.2857V1.71429C16 1.25963 15.8194 0.823594 15.4979 0.502103C15.1764 0.180612 14.7404 0 14.2857 0ZM13.7004 10.9775L13.1646 13.2989C13.1374 13.417 13.071 13.5223 12.9763 13.5977C12.8815 13.6731 12.764 13.7142 12.6429 13.7143C6.92857 13.7143 2.28571 9.08179 2.28571 3.35714C2.28997 3.23716 2.33261 3.12171 2.40738 3.02778C2.48216 2.93386 2.5851 2.8664 2.70107 2.83536L5.0225 2.29964C5.0621 2.29127 5.10239 2.28661 5.14286 2.28571C5.24645 2.29094 5.34676 2.32381 5.43336 2.3809C5.51997 2.43798 5.58971 2.51721 5.63536 2.61036L6.70679 5.11036C6.73303 5.17776 6.74764 5.24913 6.75 5.32143C6.74128 5.48002 6.67076 5.62887 6.55357 5.73607L5.20036 6.84321C6.02029 8.58104 7.41896 9.97971 9.15679 10.7996L10.2639 9.44643C10.3711 9.32924 10.52 9.25872 10.6786 9.25C10.7509 9.25233 10.8222 9.26694 10.8896 9.29321L13.3896 10.3646C13.4828 10.4102 13.5621 10.48 13.6192 10.5666C13.6763 10.6532 13.7091 10.7535 13.7143 10.8571C13.7136 10.8976 13.7089 10.9379 13.7004 10.9775Z" fill="#0B0E26"/>
</svg>
