<svg width="32" height="32" viewBox="0 0 32 32" fill="none" xmlns="http://www.w3.org/2000/svg">
<g clip-path="url(#clip0)">
<path d="M31.1414 16.2993C31.1414 14.9883 31.0354 14.0316 30.806 13.0395H15.8893V18.9568H24.6451C24.4686 20.4273 23.5154 22.6419 21.397 24.13L21.3673 24.3281L26.0837 27.995L26.4104 28.0278C29.4114 25.2462 31.1414 21.1537 31.1414 16.2993Z" fill="#4285F4"/>
<path d="M15.8896 31.8903C20.1792 31.8903 23.7804 30.4729 26.4108 28.028L21.3973 24.1302C20.0557 25.0692 18.255 25.7247 15.8896 25.7247C11.6881 25.7247 8.12224 22.9432 6.85109 19.0986L6.66477 19.1145L1.76055 22.9237L1.69641 23.1026C4.30904 28.3114 9.6756 31.8903 15.8896 31.8903Z" fill="#34A853"/>
<path d="M6.85087 19.0986C6.51547 18.1065 6.32136 17.0434 6.32136 15.945C6.32136 14.8465 6.51547 13.7836 6.83322 12.7915L6.82434 12.5802L1.8587 8.70987L1.69623 8.78743C0.619448 10.9489 0.00158691 13.3761 0.00158691 15.945C0.00158691 18.514 0.619448 20.9411 1.69623 23.1025L6.85087 19.0986Z" fill="#FBBC05"/>
<path d="M15.8894 6.1654C18.8727 6.1654 20.8851 7.45872 22.0326 8.53951L26.5165 4.14574C23.7627 1.57682 20.179 3.05176e-05 15.8894 3.05176e-05C9.67554 3.05176e-05 4.30902 3.57878 1.69641 8.78745L6.8334 12.7915C8.12219 8.94696 11.6881 6.1654 15.8894 6.1654Z" fill="#EB4335"/>
</g>
<defs>
<clipPath id="clip0">
<rect width="31.1579" height="32" fill="white"/>
</clipPath>
</defs>
</svg>
