<svg width="26" height="26" viewBox="0 0 26 26" fill="none" xmlns="http://www.w3.org/2000/svg">
<path d="M12.8357 1.98969C18.7362 1.98969 23.58 6.76863 23.58 12.7339C23.58 18.6677 18.7744 23.4782 12.8357 23.4782C6.90432 23.4782 2.09149 18.675 2.09149 12.7339C2.09149 6.80455 6.89666 1.98969 12.8357 1.98969ZM12.8357 0.397949C6.02324 0.397949 0.499756 5.92342 0.499756 12.7339C0.499756 19.5484 6.02324 25.0699 12.8357 25.0699C19.6482 25.0699 25.1717 19.5484 25.1717 12.7339C25.1717 5.92342 19.6482 0.397949 12.8357 0.397949ZM11.045 17.5091H11.6419V11.5401H11.045C10.7154 11.5401 10.4481 11.2729 10.4481 10.9432V10.5453C10.4481 10.2156 10.7154 9.94838 11.045 9.94838H13.4326C13.7623 9.94838 14.0295 10.2156 14.0295 10.5453V17.5091H14.6264C14.9561 17.5091 15.2233 17.7764 15.2233 18.106V18.504C15.2233 18.8336 14.9561 19.1009 14.6264 19.1009H11.045C10.7154 19.1009 10.4481 18.8336 10.4481 18.504V18.106C10.4481 17.7764 10.7154 17.5091 11.045 17.5091ZM12.8357 5.5711C11.9566 5.5711 11.244 6.28375 11.244 7.16284C11.244 8.04193 11.9566 8.75458 12.8357 8.75458C13.7148 8.75458 14.4275 8.04193 14.4275 7.16284C14.4275 6.28375 13.7148 5.5711 12.8357 5.5711Z" fill="#2F2F2F"/>
</svg>
