<svg width="41" height="33" viewBox="0 0 41 33" fill="none" xmlns="http://www.w3.org/2000/svg">
<path d="M40.7256 11.3502L34.8699 1.0377C34.5048 0.399609 33.8257 0 33.0889 0H7.91108C7.17432 0 6.49522 0.399609 6.13005 1.0377L0.274437 11.3502C-0.507166 12.7295 0.473041 14.4375 2.04906 14.4375H4.09916V30.7312C4.09916 31.9816 5.0153 33 6.14927 33H22.5501C23.6841 33 24.6002 31.9816 24.6002 30.7312V14.4375H33.8257V31.9688C33.8257 32.5359 34.287 33 34.8507 33H35.8758C36.4396 33 36.9008 32.5359 36.9008 31.9688V14.4375H38.9509C40.527 14.4375 41.5072 12.7295 40.7256 11.3502ZM21.5251 29.9062H7.17432V23.7316H21.5251V29.9062ZM21.5251 20.6379H7.17432V14.4375H21.5251V20.6379ZM3.81727 11.3438L8.50048 3.09375H32.4931L37.1763 11.3438H3.81727Z"/>
</svg>
