<svg width="31" height="26" viewBox="0 0 31 26" fill="none" xmlns="http://www.w3.org/2000/svg">
<path d="M30.3568 8.75954L25.992 0.800843C25.7198 0.308399 25.2136 0 24.6645 0H5.89691C5.34774 0 4.84154 0.308399 4.56934 0.800843L0.204565 8.75954C-0.378041 9.82401 0.352604 11.1422 1.52737 11.1422H3.05551V23.8015C3.05551 24.7217 3.73841 25.4678 4.58366 25.4678H16.8088C17.6541 25.4678 18.337 24.7217 18.337 23.8015V11.1422H25.9777V25.0699C25.9777 25.2887 26.1496 25.4678 26.3598 25.4678H27.1238C27.334 25.4678 27.5059 25.2887 27.5059 25.0699V11.1422H29.034C30.2088 11.1422 30.9394 9.82401 30.3568 8.75954ZM16.8088 23.8015C16.8088 23.8462 16.7945 23.8711 16.7993 23.8761L4.61231 23.886C4.61231 23.886 4.58366 23.8612 4.58366 23.8015V17.5091H16.8088V23.8015ZM16.8088 15.9174H4.58366V11.1422H16.8088V15.9174ZM1.53214 9.55043L5.89691 1.59174H24.6645L29.034 9.55043H1.53214Z" fill="#2F2F2F"/>
</svg>
