<svg width="97" height="90" viewBox="0 0 97 90" 
  xmlns="http://www.w3.org/2000/svg">
  <path fill-rule="evenodd" clip-rule="evenodd" d="M70.8096 33.098H91.7336C94.1361 33.098 96.1018 35.2318 96.1018 37.8398L95.9708 39.1201L84.8754 83.0769C83.827 87.0601 80.4634 90 76.4446 90H19.6572C15.6384 90 12.2748 87.0601 11.2701 83.0769L0.174731 39.1201C0.0436826 38.6934 0 38.2666 0 37.8398C0 35.2318 1.96572 33.098 4.36826 33.098H25.2923L44.4253 2.03899C45.2552 0.663857 46.6531 0 48.0509 0C49.4488 0 50.8466 0.663857 51.6766 1.99157L70.8096 33.098ZM62 33L48 10L34 33H62ZM18.8677 83L9 41H87L77.1323 82.9476L18.8677 83ZM39.3749 61.875C39.3749 57.2343 43.1718 53.4375 47.8124 53.4375C52.4531 53.4375 56.2499 57.2343 56.2499 61.875C56.2499 66.5156 52.4531 70.3125 47.8124 70.3125C43.1718 70.3125 39.3749 66.5156 39.3749 61.875Z" />
  <defs>
    <linearGradient id="paint0_linear" x1="-36.6934" y1="-51.5455" x2="107.766" y2="-54.8337" gradientUnits="userSpaceOnUse">
      <stop stop-color="#DA5AFA"/>
      <stop offset="1" stop-color="#3570EC"/>
    </linearGradient>
  </defs>
</svg>
