<svg width="29" height="26" viewBox="0 0 29 26" fill="none" xmlns="http://www.w3.org/2000/svg">
<path d="M28.5059 10.932L15.4388 0.398494C15.1213 0.140704 14.7247 0 14.3157 0C13.9067 0 13.5101 0.140704 13.1925 0.398494L0.125411 10.932C0.0908912 10.9596 0.0621911 10.9937 0.0409769 11.0325C0.0197627 11.0712 0.00645715 11.1138 0.00183266 11.1577C-0.00279183 11.2017 0.0013569 11.2461 0.014038 11.2884C0.0267191 11.3307 0.0476799 11.3701 0.0757035 11.4042L0.78155 12.2741C0.8096 12.3087 0.844201 12.3375 0.883373 12.3587C0.922545 12.38 0.965521 12.3933 1.00984 12.3979C1.05416 12.4025 1.09896 12.3984 1.14167 12.3856C1.18438 12.3729 1.22416 12.3519 1.25874 12.3238L3.18093 10.7735V24.6558C3.18093 24.8667 3.26473 25.069 3.41388 25.2182C3.56303 25.3673 3.76532 25.4511 3.97625 25.4511H24.6546C24.8655 25.4511 25.0678 25.3673 25.217 25.2182C25.3661 25.069 25.4499 24.8667 25.4499 24.6558V10.7784L27.3786 12.3338C27.4485 12.3904 27.538 12.417 27.6274 12.4076C27.7169 12.3983 27.799 12.3539 27.8558 12.2841L28.5611 11.4142C28.6149 11.3418 28.6391 11.2517 28.6288 11.1622C28.6186 11.0727 28.5746 10.9904 28.5059 10.932ZM11.9295 23.8605V15.9072H16.7014V23.8605H11.9295ZM23.8593 23.8605H18.292V15.1119C18.292 14.901 18.2082 14.6987 18.0591 14.5496C17.9099 14.4004 17.7076 14.3166 17.4967 14.3166H11.1341C10.9232 14.3166 10.7209 14.4004 10.5718 14.5496C10.4226 14.6987 10.3388 14.901 10.3388 15.1119V23.8605H4.77157V9.491L14.1022 1.96528C14.1611 1.91706 14.2348 1.89071 14.3109 1.89071C14.3871 1.89071 14.4608 1.91706 14.5197 1.96528L23.8593 9.49497V23.8605Z" fill="#2F2F2F"/>
</svg>
