<svg width="24" height="24" viewBox="0 0 24 24" fill="none" xmlns="http://www.w3.org/2000/svg">
<path d="M23.0886 7.42299C23.0886 6.87658 22.9546 6.34047 22.6968 5.86107L20.1658 1.12376C19.9441 0.453627 19.3152 0 18.6039 0H4.48988C3.77851 0 3.14962 0.453627 2.9228 1.12891L0.391769 5.86623C0.134026 6.34563 0 6.88173 0 7.42815C0.00515486 10.5468 0 21.4442 0 21.4442C0 22.3566 0.737144 23.0938 1.64955 23.0938H21.4442C22.3566 23.0938 23.0938 22.3566 23.0938 21.4442C23.0938 21.4442 23.0886 10.5468 23.0886 7.42299ZM18.6039 1.64955L21.2225 6.59822H14.748L14.1295 1.64955H18.6039ZM9.89732 8.24777H13.1964V11.5469H9.89732V8.24777ZM12.4696 1.64955L13.0882 6.59822H10.0056L10.6242 1.64955H12.4696ZM4.48988 1.64955H8.96429L8.34571 6.59822H1.87121L4.48988 1.64955ZM1.64955 21.4442C1.64955 21.4442 1.65471 12.1088 1.65471 8.24777H8.24777V11.5469C8.24777 12.4593 8.98491 13.1964 9.89732 13.1964H13.1964C14.1088 13.1964 14.846 12.4593 14.846 11.5469V8.24777H21.439C21.439 12.1088 21.4442 21.4442 21.4442 21.4442H1.64955Z" fill="#2A2841"/>
</svg>
