<svg width="19" height="18" viewBox="0 0 19 18" fill="none" xmlns="http://www.w3.org/2000/svg">
<path fill-rule="evenodd" clip-rule="evenodd" d="M13.9995 6.5437H18.1364C18.6114 6.5437 19 6.96558 19 7.4812L18.9741 7.73432L16.7805 16.4249C16.5732 17.2124 15.9082 17.7936 15.1136 17.7936H3.88636C3.09182 17.7936 2.42682 17.2124 2.22818 16.4249L0.0345455 7.73432C0.00863636 7.64995 0 7.56557 0 7.4812C0 6.96558 0.388636 6.5437 0.863636 6.5437H5.00045L8.78318 0.403122C8.94727 0.131249 9.22364 0 9.5 0C9.77636 0 10.0527 0.131249 10.2168 0.393747L13.9995 6.5437ZM12.0601 6.52433L9.48993 2.37248L6.91974 6.52433H12.0601ZM3.87797 16.212L1.97707 8.10599H17.0028L15.1019 16.2019L3.87797 16.212ZM7.7847 12.2331C7.7847 11.3156 8.53537 10.565 9.45285 10.565C10.3703 10.565 11.121 11.3156 11.121 12.2331C11.121 13.1506 10.3703 13.9013 9.45285 13.9013C8.53537 13.9013 7.7847 13.1506 7.7847 12.2331Z" fill="url(#paint0_linear)" fill-opacity="0.6"/>
<path fill-rule="evenodd" clip-rule="evenodd" d="M13.9995 6.5437H18.1364C18.6114 6.5437 19 6.96558 19 7.4812L18.9741 7.73432L16.7805 16.4249C16.5732 17.2124 15.9082 17.7936 15.1136 17.7936H3.88636C3.09182 17.7936 2.42682 17.2124 2.22818 16.4249L0.0345455 7.73432C0.00863636 7.64995 0 7.56557 0 7.4812C0 6.96558 0.388636 6.5437 0.863636 6.5437H5.00045L8.78318 0.403122C8.94727 0.131249 9.22364 0 9.5 0C9.77636 0 10.0527 0.131249 10.2168 0.393747L13.9995 6.5437ZM12.0601 6.52433L9.48993 2.37248L6.91974 6.52433H12.0601ZM3.87797 16.212L1.97707 8.10599H17.0028L15.1019 16.2019L3.87797 16.212ZM7.7847 12.2331C7.7847 11.3156 8.53537 10.565 9.45285 10.565C10.3703 10.565 11.121 11.3156 11.121 12.2331C11.121 13.1506 10.3703 13.9013 9.45285 13.9013C8.53537 13.9013 7.7847 13.1506 7.7847 12.2331Z" fill="#555187"/>
<defs>
<linearGradient id="paint0_linear" x1="-7.25455" y1="-10.1909" x2="21.306" y2="-10.841" gradientUnits="userSpaceOnUse">
<stop stop-color="#DA5AFA"/>
<stop offset="1" stop-color="#3570EC"/>
</linearGradient>
</defs>
</svg>
