<svg width="29" height="26" viewBox="0 0 29 26" fill="none" xmlns="http://www.w3.org/2000/svg">
<path fill-rule="evenodd" clip-rule="evenodd" d="M20.9449 9.36593H26.8658C27.5457 9.36593 28.102 9.96975 28.102 10.7078L28.0649 11.07L24.9251 23.5088C24.6285 24.6359 23.6767 25.4678 22.5394 25.4678H6.46998C5.33275 25.4678 4.38095 24.6359 4.09664 23.5088L0.956915 11.07C0.919832 10.9493 0.907471 10.8285 0.907471 10.7078C0.907471 9.96975 1.46372 9.36593 2.14358 9.36593H8.06456L13.4787 0.576984C13.7136 0.187855 14.1092 0 14.5047 0C14.9003 0 15.2958 0.187855 15.5307 0.563566L20.9449 9.36593ZM19.2124 9.55043L14.4372 1.59174L9.66201 9.55043H19.2124ZM5.51974 23.8761L2.49919 11.1422H26.3753L23.3547 23.8602L5.51974 23.8761ZM12.0496 17.5091C12.0496 16.1959 13.124 15.1215 14.4372 15.1215C15.7504 15.1215 16.8248 16.1959 16.8248 17.5091C16.8248 18.8223 15.7504 19.8967 14.4372 19.8967C13.124 19.8967 12.0496 18.8223 12.0496 17.5091Z" fill="url(#paint0_linear)" fill-opacity="0.6"/>
<path fill-rule="evenodd" clip-rule="evenodd" d="M20.9449 9.36593H26.8658C27.5457 9.36593 28.102 9.96975 28.102 10.7078L28.0649 11.07L24.9251 23.5088C24.6285 24.6359 23.6767 25.4678 22.5394 25.4678H6.46998C5.33275 25.4678 4.38095 24.6359 4.09664 23.5088L0.956915 11.07C0.919832 10.9493 0.907471 10.8285 0.907471 10.7078C0.907471 9.96975 1.46372 9.36593 2.14358 9.36593H8.06456L13.4787 0.576984C13.7136 0.187855 14.1092 0 14.5047 0C14.9003 0 15.2958 0.187855 15.5307 0.563566L20.9449 9.36593ZM19.2124 9.55043L14.4372 1.59174L9.66201 9.55043H19.2124ZM5.51974 23.8761L2.49919 11.1422H26.3753L23.3547 23.8602L5.51974 23.8761ZM12.0496 17.5091C12.0496 16.1959 13.124 15.1215 14.4372 15.1215C15.7504 15.1215 16.8248 16.1959 16.8248 17.5091C16.8248 18.8223 15.7504 19.8967 14.4372 19.8967C13.124 19.8967 12.0496 18.8223 12.0496 17.5091Z" fill="#2F2F2F"/>
<defs>
<linearGradient id="paint0_linear" x1="-9.47588" y1="-14.5861" x2="31.4025" y2="-15.5166" gradientUnits="userSpaceOnUse">
<stop stop-color="#DA5AFA"/>
<stop offset="1" stop-color="#3570EC"/>
</linearGradient>
</defs>
</svg>
