<svg width="27" height="26" viewBox="0 0 27 26" fill="none" xmlns="http://www.w3.org/2000/svg">
<path d="M12.8672 0.155016L2.16203 4.10302C1.19959 4.45733 0.561401 5.36841 0.561401 6.38072V17.7743C0.561401 18.6955 1.09151 19.5357 1.92528 19.9457L12.6304 25.2097C13.3252 25.5539 14.1436 25.5539 14.8384 25.2097L25.5435 19.9457C26.3825 19.5357 26.9074 18.6904 26.9074 17.7743V6.38072C26.9074 5.36841 26.2692 4.46239 25.3068 4.10809L14.6016 0.160077C14.0458 -0.0525079 13.4282 -0.0525078 12.8672 0.155016ZM13.737 1.56719L25.2656 5.81889V5.83407L13.737 10.7488L2.20835 5.83407V5.81889L13.737 1.56719ZM2.20835 7.60055L12.9135 12.161V23.5343L2.20835 18.2703V7.60055ZM14.5605 23.5343V12.161L25.2656 7.60055V18.2754L14.5605 23.5343Z" fill="#2F2F2F"/>
<path d="M12.8672 0.155016L2.16203 4.10302C1.19959 4.45733 0.561401 5.36841 0.561401 6.38072V17.7743C0.561401 18.6955 1.09151 19.5357 1.92528 19.9457L12.6304 25.2097C13.3252 25.5539 14.1436 25.5539 14.8384 25.2097L25.5435 19.9457C26.3825 19.5357 26.9074 18.6904 26.9074 17.7743V6.38072C26.9074 5.36841 26.2692 4.46239 25.3068 4.10809L14.6016 0.160077C14.0458 -0.0525079 13.4282 -0.0525078 12.8672 0.155016ZM13.737 1.56719L25.2656 5.81889V5.83407L13.737 10.7488L2.20835 5.83407V5.81889L13.737 1.56719ZM2.20835 7.60055L12.9135 12.161V23.5343L2.20835 18.2703V7.60055ZM14.5605 23.5343V12.161L25.2656 7.60055V18.2754L14.5605 23.5343Z" fill="url(#paint0_linear)"/>
<defs>
<linearGradient id="paint0_linear" x1="-9.49799" y1="-14.5861" x2="30.1063" y2="-15.4595" gradientUnits="userSpaceOnUse">
<stop stop-color="#DA5AFA"/>
<stop offset="1" stop-color="#3570EC"/>
</linearGradient>
</defs>
</svg>
